<svg width="46" height="46" viewBox="0 0 46 46" fill="none" xmlns="http://www.w3.org/2000/svg">
<path d="M29.555 12.6238C29.3905 12.6241 29.232 12.5627 29.1105 12.4518C29.0464 12.3934 28.9943 12.3229 28.9574 12.2444C28.9205 12.1659 28.8993 12.0809 28.8953 11.9942C28.8912 11.9076 28.9042 11.821 28.9336 11.7393C28.963 11.6577 29.0082 11.5827 29.0666 11.5185C30.5256 9.91533 32.3258 8.88509 34.2728 8.53928C35.8865 8.25286 37.5864 8.43928 39.059 9.06478C39.2203 9.13332 39.3477 9.26308 39.4133 9.42553C39.4789 9.58799 39.4773 9.76985 39.4089 9.93114C39.3403 10.0924 39.2105 10.2198 39.0481 10.2854C38.8856 10.351 38.7037 10.3494 38.5424 10.2809C36.254 9.30897 32.8198 9.35722 30.0437 12.4078C29.9819 12.4759 29.9064 12.5304 29.8223 12.5676C29.7381 12.6048 29.647 12.624 29.555 12.6238Z" fill="#D0C9BF"/>
<path d="M30.949 16.4936L32.0034 15.4393C33.2665 14.1762 33.2665 12.1283 32.0034 10.8652L30.7945 9.65632C29.5314 8.39321 27.4835 8.39321 26.2204 9.65632L24.4148 11.4619C22.3752 10.5801 20.1266 10.0905 17.7633 10.0905C8.49762 10.0905 0.986328 17.6018 0.986328 26.8675C0.986328 36.1332 8.49762 43.6445 17.7633 43.6445C27.029 43.6445 34.5403 36.1332 34.5403 26.8675C34.5403 22.9512 33.1982 19.3484 30.949 16.4936Z" fill="#384C59"/>
<path d="M40.7869 9.40248C40.7869 10.4973 39.8961 11.3881 38.8012 11.3881C37.7063 11.3881 36.8155 10.4973 36.8155 9.40248C36.8155 8.30764 37.7063 7.41684 38.8012 7.41684C39.8961 7.41684 40.7869 8.30764 40.7869 9.40248ZM39.5499 6.05508V3.5886C39.5499 3.17505 39.2147 2.83984 38.8012 2.83984C38.3876 2.83984 38.0524 3.17505 38.0524 3.5886V6.05508C38.0524 6.25366 38.1313 6.44411 38.2717 6.58453C38.4121 6.72495 38.6026 6.80384 38.8012 6.80384C38.9998 6.80384 39.1902 6.72495 39.3306 6.58453C39.471 6.44411 39.5499 6.25366 39.5499 6.05508ZM36.9637 7.56491C37.0332 7.49538 37.0884 7.41284 37.126 7.322C37.1637 7.23116 37.183 7.13379 37.183 7.03546C37.183 6.93713 37.1637 6.83976 37.126 6.74891C37.0884 6.65807 37.0332 6.57553 36.9637 6.50601L35.2196 4.76196C35.0788 4.6238 34.889 4.54684 34.6917 4.5478C34.4944 4.54877 34.3054 4.62759 34.1659 4.76712C34.0264 4.90666 33.9476 5.09563 33.9466 5.29295C33.9457 5.49027 34.0227 5.67999 34.1608 5.82086L35.9049 7.56491C36.0511 7.71108 36.2427 7.78421 36.4343 7.78421C36.626 7.78421 36.8175 7.71108 36.9637 7.56491ZM35.2196 14.0428L36.9637 12.2988C37.1019 12.1579 37.1788 11.9682 37.1779 11.7709C37.1769 11.5735 37.0981 11.3846 36.9586 11.245C36.8191 11.1055 36.6301 11.0267 36.4328 11.0257C36.2355 11.0248 36.0458 11.1017 35.9049 11.2399L34.1608 12.9839C34.0561 13.0886 33.9847 13.222 33.9558 13.3673C33.9269 13.5126 33.9417 13.6631 33.9984 13.8C34.0551 13.9368 34.1511 14.0537 34.2742 14.136C34.3974 14.2183 34.5422 14.2622 34.6903 14.2621C34.7886 14.2623 34.886 14.2429 34.9769 14.2053C35.0677 14.1677 35.1502 14.1124 35.2196 14.0428ZM39.5499 15.2163V12.7498C39.5499 12.3362 39.2147 12.001 38.8012 12.001C38.3876 12.001 38.0524 12.3362 38.0524 12.7498V15.2163C38.0524 15.6298 38.3876 15.965 38.8012 15.965C39.2147 15.965 39.5499 15.6298 39.5499 15.2163ZM43.4416 14.0428C43.5111 13.9733 43.5663 13.8908 43.6039 13.7999C43.6416 13.7091 43.6609 13.6117 43.6609 13.5134C43.6609 13.415 43.6416 13.3177 43.6039 13.2268C43.5663 13.136 43.5111 13.0534 43.4416 12.9839L41.6976 11.2399C41.5567 11.1017 41.3669 11.0248 41.1696 11.0257C40.9723 11.0267 40.7833 11.1055 40.6438 11.245C40.5043 11.3846 40.4255 11.5735 40.4245 11.7709C40.4236 11.9682 40.5006 12.1579 40.6388 12.2988L42.3828 14.0428C42.529 14.189 42.7206 14.2621 42.9122 14.2621C43.1039 14.2621 43.2954 14.189 43.4416 14.0428ZM45.3638 9.40248C45.3638 9.2039 45.2849 9.01345 45.1445 8.87303C45.0041 8.73261 44.8136 8.65372 44.6151 8.65372H42.1486C41.735 8.65372 41.3998 8.98893 41.3998 9.40248C41.3998 9.81603 41.735 10.1512 42.1486 10.1512H44.6151C44.8136 10.1512 45.0041 10.0724 45.1445 9.93193C45.2849 9.79151 45.3638 9.60106 45.3638 9.40248ZM41.6976 7.56491L43.4416 5.82086C43.5798 5.67999 43.6568 5.49027 43.6558 5.29295C43.6549 5.09563 43.5761 4.90666 43.4365 4.76712C43.297 4.62759 43.108 4.54877 42.9107 4.5478C42.7134 4.54684 42.5237 4.6238 42.3828 4.76196L40.6388 6.50601C40.534 6.61071 40.4626 6.74413 40.4337 6.88938C40.4048 7.03464 40.4196 7.18521 40.4763 7.32205C40.533 7.45888 40.629 7.57583 40.7521 7.6581C40.8753 7.74037 41.0201 7.78426 41.1682 7.78421C41.2665 7.78434 41.3639 7.76503 41.4548 7.72739C41.5456 7.68976 41.6281 7.63454 41.6976 7.56491Z" fill="#FFC145"/>
<path d="M11.1415 13.8299C8.55228 14.968 7.02657 17.1948 7.73374 18.8037C8.4409 20.4127 11.1132 20.7944 13.7024 19.6563C16.2916 18.5183 17.8174 16.2914 17.1102 14.6825C16.403 13.0736 13.7308 12.6919 11.1415 13.8299Z" fill="#80878C"/>
</svg>
