<svg width="46" height="42" viewBox="0 0 46 42" fill="none" xmlns="http://www.w3.org/2000/svg">
<path d="M29.6605 9.784C29.496 9.78422 29.3374 9.72284 29.216 9.61195C29.1518 9.55356 29.0998 9.4831 29.0629 9.40459C29.0259 9.32608 29.0048 9.24107 29.0007 9.1544C28.9967 9.06774 29.0097 8.98112 29.0391 8.89949C29.0685 8.81786 29.1137 8.74282 29.1721 8.67865C30.631 7.07548 32.4312 6.04524 34.3783 5.69944C35.9919 5.41301 37.6919 5.59944 39.1645 6.22493C39.3257 6.29347 39.4532 6.42323 39.5188 6.58569C39.5844 6.74815 39.5828 6.93001 39.5143 7.0913C39.4458 7.25254 39.316 7.37997 39.1535 7.44556C38.9911 7.51114 38.8092 7.50952 38.6479 7.44106C36.3595 6.46913 32.9253 6.51737 30.1492 9.56793C30.0874 9.63609 30.0119 9.69054 29.9277 9.72775C29.8436 9.76497 29.7525 9.78413 29.6605 9.784Z" fill="#D0C9BF"/>
<path d="M40.8924 6.56264C40.8924 7.65747 40.0016 8.54827 38.9066 8.54827C37.8117 8.54827 36.921 7.65747 36.921 6.56264C36.921 5.4678 37.8117 4.577 38.9066 4.577C40.0016 4.577 40.8924 5.4678 40.8924 6.56264ZM39.6554 3.21524V0.748758C39.6554 0.335207 39.3202 0 38.9066 0C38.4931 0 38.1579 0.335207 38.1579 0.748758V3.21524C38.1579 3.41382 38.2368 3.60427 38.3772 3.74469C38.5176 3.88511 38.7081 3.964 38.9066 3.964C39.1052 3.964 39.2957 3.88511 39.4361 3.74469C39.5765 3.60427 39.6554 3.41382 39.6554 3.21524ZM37.0692 4.72506C37.1387 4.65554 37.1939 4.573 37.2315 4.48216C37.2691 4.39131 37.2885 4.29394 37.2885 4.19561C37.2885 4.09728 37.2691 3.99991 37.2315 3.90907C37.1939 3.81823 37.1387 3.73569 37.0692 3.66616L35.3251 1.92212C35.1842 1.78396 34.9945 1.70699 34.7972 1.70796C34.5999 1.70893 34.4109 1.78774 34.2714 1.92728C34.1319 2.06681 34.0531 2.25578 34.0521 2.4531C34.0512 2.65042 34.1281 2.84014 34.2663 2.98102L36.0104 4.72506C36.1565 4.87124 36.3482 4.94437 36.5398 4.94437C36.7314 4.94437 36.923 4.87124 37.0692 4.72506ZM35.3251 11.203L37.0692 9.45893C37.2073 9.31806 37.2843 9.12834 37.2834 8.93102C37.2824 8.7337 37.2036 8.54473 37.0641 8.40519C36.9246 8.26566 36.7356 8.18684 36.5383 8.18587C36.341 8.18491 36.1512 8.26187 36.0104 8.40003L34.2663 10.1441C34.1615 10.2488 34.0902 10.3822 34.0613 10.5275C34.0324 10.6727 34.0472 10.8233 34.1039 10.9601C34.1605 11.097 34.2565 11.2139 34.3797 11.2962C34.5029 11.3784 34.6476 11.4223 34.7958 11.4223C34.8941 11.4224 34.9915 11.4031 35.0823 11.3655C35.1732 11.3278 35.2557 11.2726 35.3251 11.203ZM39.6554 12.3764V9.90995C39.6554 9.49639 39.3202 9.16119 38.9066 9.16119C38.4931 9.16119 38.1579 9.49639 38.1579 9.90995V12.3764C38.1579 12.79 38.4931 13.1252 38.9066 13.1252C39.3202 13.1252 39.6554 12.79 39.6554 12.3764ZM43.5471 11.203C43.6166 11.1335 43.6718 11.0509 43.7094 10.9601C43.747 10.8692 43.7664 10.7719 43.7664 10.6735C43.7664 10.5752 43.747 10.4778 43.7094 10.387C43.6718 10.2961 43.6166 10.2136 43.5471 10.1441L41.803 8.40003C41.6621 8.26187 41.4724 8.18491 41.2751 8.18587C41.0778 8.18684 40.8888 8.26566 40.7493 8.40519C40.6098 8.54473 40.531 8.7337 40.53 8.93102C40.5291 9.12834 40.606 9.31806 40.7442 9.45893L42.4883 11.203C42.6344 11.3492 42.8261 11.4223 43.0177 11.4223C43.2094 11.4223 43.4009 11.3492 43.5471 11.203ZM45.4693 6.56264C45.4693 6.36405 45.3904 6.1736 45.25 6.03319C45.1096 5.89277 44.9191 5.81388 44.7205 5.81388H42.254C41.8405 5.81388 41.5053 6.14909 41.5053 6.56264C41.5053 6.97619 41.8405 7.31139 42.254 7.31139H44.7205C44.9191 7.31139 45.1096 7.23251 45.25 7.09209C45.3904 6.95167 45.4693 6.76122 45.4693 6.56264ZM41.803 4.72506L43.5471 2.98102C43.6852 2.84014 43.7622 2.65042 43.7613 2.4531C43.7603 2.25578 43.6815 2.06681 43.542 1.92728C43.4025 1.78774 43.2135 1.70893 43.0162 1.70796C42.8189 1.70699 42.6292 1.78396 42.4883 1.92212L40.7442 3.66616C40.6395 3.77086 40.5681 3.90428 40.5392 4.04954C40.5103 4.1948 40.5251 4.34537 40.5818 4.48221C40.6385 4.61904 40.7344 4.73599 40.8576 4.81826C40.9808 4.90052 41.1256 4.94441 41.2737 4.94437C41.372 4.9445 41.4694 4.92518 41.5602 4.88755C41.6511 4.84991 41.7336 4.79469 41.803 4.72506Z" fill="#FFC145"/>
<path d="M29.9627 14.7846L31.017 13.7303C32.2801 12.4672 32.2801 10.4193 31.017 9.15618L29.8082 7.94734C28.5451 6.68422 26.4972 6.68422 25.2341 7.94734L23.4285 9.75292C21.3889 8.87111 19.1403 8.38155 16.777 8.38155C7.5113 8.38155 0 15.8928 0 25.1585C0 34.4242 7.5113 41.9355 16.777 41.9355C26.0426 41.9355 33.5539 34.4242 33.5539 25.1585C33.5539 21.2422 32.2119 17.6394 29.9627 14.7846Z" fill="#384C59"/>
<path d="M11.6884 12.0604C9.09916 13.1984 7.57344 15.4253 8.28061 17.0342C8.98778 18.6431 11.66 19.0248 14.2493 17.8868C16.8385 16.7487 18.3642 14.5219 17.6571 12.913C16.9499 11.3041 14.2776 10.9223 11.6884 12.0604Z" fill="#80878C"/>
</svg>
