<svg width="49" height="36" viewBox="0 0 49 36" fill="none" xmlns="http://www.w3.org/2000/svg">
<path d="M45.9372 1.02344H3.06217C1.93459 1.02344 1.02051 1.93922 1.02051 3.06889V33.7507C1.02051 34.8804 1.93459 35.7962 3.06217 35.7962H45.9372C47.0648 35.7962 47.9788 34.8804 47.9788 33.7507V3.06889C47.9788 1.93922 47.0648 1.02344 45.9372 1.02344Z" fill="#F07720"/>
<path d="M47.9788 9.20508H1.02051V19.4324H47.9788V9.20508Z" fill="white"/>
<path d="M15.3125 25.5689H7.14583C6.87509 25.5689 6.61544 25.4611 6.424 25.2693C6.23255 25.0775 6.125 24.8174 6.125 24.5462C6.125 24.2749 6.23255 24.0148 6.424 23.823C6.61544 23.6312 6.87509 23.5234 7.14583 23.5234H15.3125C15.5832 23.5234 15.8429 23.6312 16.0343 23.823C16.2258 24.0148 16.3333 24.2749 16.3333 24.5462C16.3333 24.8174 16.2258 25.0775 16.0343 25.2693C15.8429 25.4611 15.5832 25.5689 15.3125 25.5689Z" fill="#9111A6"/>
<path d="M28.583 25.5689H20.4163C20.1456 25.5689 19.8859 25.4611 19.6945 25.2693C19.5031 25.0775 19.3955 24.8174 19.3955 24.5462C19.3955 24.2749 19.5031 24.0148 19.6945 23.823C19.8859 23.6312 20.1456 23.5234 20.4163 23.5234H28.583C28.8537 23.5234 29.1134 23.6312 29.3048 23.823C29.4963 24.0148 29.6038 24.2749 29.6038 24.5462C29.6038 24.8174 29.4963 25.0775 29.3048 25.2693C29.1134 25.4611 28.8537 25.5689 28.583 25.5689Z" fill="#9111A6"/>
<path d="M41.8545 25.5689H33.6878C33.4171 25.5689 33.1574 25.4611 32.966 25.2693C32.7745 25.0775 32.667 24.8174 32.667 24.5462C32.667 24.2749 32.7745 24.0148 32.966 23.823C33.1574 23.6312 33.4171 23.5234 33.6878 23.5234H41.8545C42.1252 23.5234 42.3849 23.6312 42.5763 23.823C42.7678 24.0148 42.8753 24.2749 42.8753 24.5462C42.8753 24.8174 42.7678 25.0775 42.5763 25.2693C42.3849 25.4611 42.1252 25.5689 41.8545 25.5689Z" fill="#9111A6"/>
<path d="M11.2292 30.6822H7.14583C6.87509 30.6822 6.61544 30.5744 6.424 30.3826C6.23255 30.1908 6.125 29.9307 6.125 29.6594C6.125 29.3882 6.23255 29.1281 6.424 28.9363C6.61544 28.7445 6.87509 28.6367 7.14583 28.6367H11.2292C11.4999 28.6367 11.7596 28.7445 11.951 28.9363C12.1424 29.1281 12.25 29.3882 12.25 29.6594C12.25 29.9307 12.1424 30.1908 11.951 30.3826C11.7596 30.5744 11.4999 30.6822 11.2292 30.6822Z" fill="#9111A6"/>
</svg>
