<svg width="50" height="38" viewBox="0 0 50 38" fill="none" xmlns="http://www.w3.org/2000/svg">
<g clip-path="url(#clip0_811_2176)">
<path d="M43.359 34.4153C43.0927 34.9052 42.6878 35.504 42.1443 36.2119C41.7675 36.7037 41.2575 37.0362 40.6144 37.2094C38.8626 37.6807 37.2666 37.8297 35.8264 37.6564C33.435 37.3714 31.9948 35.0188 31.4269 32.7863C31.4051 32.6988 31.3531 32.6225 31.2806 32.5716C31.2081 32.5207 31.12 32.4987 31.0329 32.5097C27.1108 33.0052 23.1814 33.0089 19.2448 32.5209C19.2108 32.5174 19.1768 32.5269 19.1496 32.5477C19.1224 32.5684 19.104 32.5987 19.0981 32.6326C18.8988 33.7708 18.5374 34.8605 18.0139 35.9017C17.976 35.9759 17.9275 36.0446 17.8698 36.1057C17.503 36.4885 17.2965 36.8601 16.9323 37.2066C15.56 38.5142 11.9921 38.137 10.4269 37.8017C9.67327 37.6397 8.99846 37.0594 8.40244 36.061C5.86077 31.8009 3.43324 27.5455 1.11983 23.2947C0.123455 21.4673 -0.221653 19.5524 0.0845061 17.55C0.23668 16.5534 0.87255 15.0315 1.99212 12.9844C4.91059 7.64948 6.98759 3.96311 8.22309 1.92527C8.85715 0.880268 9.81096 0.275806 11.0845 0.111885C13.3889 -0.184292 15.9242 -0.385468 17.3671 1.57042C18.2285 2.73836 18.5302 3.88115 18.9568 5.22512C18.9753 5.28336 19.0123 5.33362 19.062 5.368C19.1117 5.40239 19.1712 5.41896 19.2312 5.41512C21.1624 5.28659 22.4052 5.20742 22.9595 5.17762C25.686 5.03233 28.32 5.12174 30.8617 5.44586C30.9134 5.45211 30.9655 5.43954 31.0088 5.41039C31.0521 5.38123 31.0837 5.33736 31.0981 5.28659C31.3572 4.34591 31.7956 3.34841 32.4133 2.29409C32.8843 1.48939 33.4224 0.930565 34.0274 0.617622C34.7557 0.239487 35.5057 0.039238 36.2774 0.0168877C37.7104 -0.0240936 39.0791 0.100708 40.3834 0.391296C41.984 0.75174 43.0682 2.80821 43.8264 4.31983C45.3227 7.29277 46.8318 10.2778 48.3535 13.275C49.9894 16.4966 50.7557 18.8381 49.2992 22.0122C46.7521 27.5613 44.8155 31.6128 43.4894 34.1666C43.4532 34.2355 43.4097 34.3184 43.359 34.4153ZM0.888854 19.7881C0.905158 20.7958 1.16512 21.7542 1.66875 22.6632C3.63251 26.2006 5.6778 29.8348 7.80462 33.5659C8.16331 34.4805 8.76929 35.4342 9.62255 36.427C10.0012 36.8666 10.3608 37.1228 10.7014 37.1954C11.3427 37.3333 12.2883 37.3845 13.5383 37.3491L14.8345 37.296C16.3418 36.9905 17.349 36.0452 17.8562 34.46C18.1751 33.4597 18.4713 32.5153 18.7448 31.6267L25.0329 32.0431C25.0483 32.044 25.0637 32.0415 25.0783 32.0357C25.0928 32.0299 25.106 32.021 25.1171 32.0095C25.1787 31.9481 25.1814 31.895 25.1253 31.8503C26.2829 31.9229 27.4423 31.9089 28.6035 31.8084C29.5619 31.7245 30.2104 31.745 30.5492 31.8698C31.9758 32.3895 32.2149 33.9403 32.8481 34.8847C33.0619 35.2051 33.455 35.6205 34.0274 36.1309L35.2394 36.821C36.6977 36.9738 38.0854 36.9449 39.4024 36.7344C40.0764 36.6263 40.7023 36.3553 41.2802 35.9213C41.7802 35.491 42.2168 34.9508 42.5899 34.3007C43.1026 33.4029 43.5075 32.5935 43.8046 31.8726C43.8371 31.7946 43.8781 31.7197 43.9269 31.6491C44.2131 31.2393 44.3789 30.8612 44.4242 30.5147C45.8861 27.5212 47.2765 24.5735 48.5954 21.6713C49.3218 20.0731 49.4341 18.4227 48.9323 16.7201C48.7892 16.2377 48.4097 15.351 47.7937 14.0601C46.7376 11.8453 45.6407 9.65194 44.503 7.47997C44.4541 7.30301 44.387 7.13164 44.3019 6.96585C43.8834 6.15184 43.2421 4.95502 42.378 3.37542C41.6153 1.97649 40.4658 1.16806 38.9296 0.950119C37.3644 0.726593 35.5519 0.539391 34.2231 1.42513C33.3789 2.07708 32.7503 2.90787 32.3372 3.91748C32.3224 3.95274 32.3215 3.99261 32.3346 4.02896C32.3477 4.0653 32.3739 4.09538 32.4079 4.11306C33.3318 4.59086 34.2693 4.95409 34.6851 5.9013C35.3572 7.43992 35.8553 9.03537 36.1796 10.6876C36.339 11.5054 36.3454 12.6221 36.1986 14.0378C36.0591 13.0133 35.9006 11.9962 35.7231 10.9866C35.6235 10.4129 35.3943 9.9686 35.0356 9.6538C33.7095 8.484 32.0365 7.46321 30.0166 6.59144C28.9812 6.14439 28.1823 6.09409 26.9704 6.041C24.8146 5.946 22.7847 6.0438 20.8807 6.33439L18.6823 6.44057C18.6399 6.44201 18.5982 6.42976 18.5635 6.40561C18.5287 6.38147 18.5028 6.3467 18.4894 6.30645L18.0736 5.10777C17.7285 3.34747 16.666 1.05071 14.7258 0.782475C13.1606 0.566399 11.5999 0.676296 10.0437 1.11218C9.63433 1.41581 9.33722 1.68963 9.15244 1.93365C8.60534 2.64894 8.12527 3.48718 7.71222 4.44836C4.92962 9.25983 2.84809 13.0058 1.46766 15.6863C0.862586 16.8617 0.669651 18.2289 0.888854 19.7881Z" fill="#6C03AD"/>
<path d="M0.887695 19.7871C0.668492 18.228 0.861724 16.86 1.4668 15.6846C2.84723 13.0041 4.92941 9.25855 7.71191 4.44727L8.50781 8.6582L9.13867 15.2383C9.24011 18.6134 9.22753 21.6831 9.10254 24.4473C8.97029 27.3382 8.53738 30.3774 7.80371 33.5645C5.67697 29.8335 3.63168 26.1994 1.66797 22.6621C1.16439 21.7532 0.905005 20.7948 0.888672 19.7871H0.887695ZM4.16016 15.4609C4.16614 15.4721 4.1749 15.4822 4.18457 15.4902L4.18848 15.4932C4.19821 15.5012 4.20969 15.5071 4.22168 15.5107C4.2336 15.5143 4.24645 15.516 4.25879 15.5146C4.27106 15.5132 4.28311 15.509 4.29395 15.5029C4.30483 15.4968 4.31448 15.4885 4.32227 15.4785L6.95508 12.1123C6.96288 12.1023 6.96817 12.0904 6.97168 12.0781C6.97519 12.0658 6.97596 12.0528 6.97461 12.04C6.97327 12.0274 6.9698 12.0151 6.96387 12.0039C6.95794 11.9928 6.95002 11.9826 6.94043 11.9746L6.93555 11.9707C6.92596 11.9628 6.91508 11.9567 6.90332 11.9531C6.89139 11.9495 6.87857 11.9488 6.86621 11.9502C6.85399 11.9516 6.84187 11.9549 6.83105 11.9609C6.82013 11.9671 6.80957 11.9754 6.80176 11.9854L4.16992 15.3525C4.16218 15.3625 4.15585 15.3736 4.15234 15.3857C4.14886 15.398 4.14811 15.4112 4.14941 15.4238C4.15076 15.4366 4.15416 15.4497 4.16016 15.4609ZM3.39258 15.4551C3.39478 15.4769 3.4054 15.4967 3.42188 15.5107L3.44727 15.5322C3.45542 15.5391 3.46453 15.5446 3.47461 15.5479C3.48485 15.5511 3.49618 15.5519 3.50684 15.5508C3.51737 15.5497 3.52776 15.5471 3.53711 15.542C3.54655 15.5368 3.55473 15.529 3.56152 15.5205L6.12109 12.3164C6.13466 12.2994 6.14162 12.2778 6.13965 12.2559C6.13755 12.2339 6.12687 12.2133 6.11035 12.1992L6.08496 12.1777C6.07669 12.1707 6.06689 12.1653 6.05664 12.1621C6.04651 12.159 6.03593 12.1581 6.02539 12.1592C6.0149 12.1602 6.00445 12.1629 5.99512 12.168C5.98567 12.1732 5.97652 12.1809 5.96973 12.1895L3.41016 15.3936C3.39665 15.4107 3.39048 15.4331 3.39258 15.4551ZM3.28223 15.3027C3.97435 14.3675 4.66799 13.4372 5.36328 12.5127C4.66808 13.4371 3.97426 14.3667 3.28223 15.3018C3.27612 15.3121 3.26629 15.3203 3.25488 15.3232C3.26622 15.3204 3.2761 15.3129 3.28223 15.3027Z" fill="#FDC008"/>
<path d="M7.71191 4.44824C8.12495 3.48709 8.60525 2.64888 9.15234 1.93359C9.33709 1.68967 9.63378 1.41579 10.043 1.1123V1.11133C11.5991 0.675472 13.1604 0.566162 14.7256 0.782227C16.6655 1.05066 17.7281 3.34727 18.0732 5.10742C18.3612 10.2627 18.6021 13.6549 18.7959 15.2832C19.0531 17.4327 19.2707 19.5991 19.4482 21.7803C19.5008 22.4263 19.5807 22.9827 19.6875 23.4482C19.6938 23.4757 19.7077 23.501 19.7275 23.5205C19.7475 23.54 19.7727 23.5535 19.7998 23.5586C19.8268 23.5636 19.8546 23.5598 19.8799 23.5488C19.9052 23.5377 19.9272 23.5187 19.9424 23.4951C20.869 22.0621 22.1655 22.0621 23.6572 21.9336C24.8691 23.6715 26.1088 25.3955 27.375 27.1055C28.4274 28.5284 29.4068 29.5918 30.3125 30.2959C31.8315 31.4778 34.1138 31.9166 35.0078 29.7344C35.2703 29.0976 35.4603 28.5044 35.5762 27.9551C35.592 27.8814 35.5911 27.804 35.5732 27.7305C35.5553 27.657 35.5205 27.5883 35.4727 27.5303C33.7191 25.4292 32.1288 23.2855 30.7031 21.1006C32.5479 20.5586 34.4911 20.5675 35.877 22.1035C35.9056 22.1346 35.9424 22.1581 35.9824 22.1699C36.0226 22.1817 36.0653 22.1818 36.1055 22.1709C36.1456 22.16 36.1822 22.1379 36.2109 22.1074C36.2394 22.0771 36.2593 22.0392 36.2686 21.998C36.5203 20.9047 36.584 19.8014 36.459 18.6895L36.1982 14.0371C36.3449 12.6218 36.3381 11.5051 36.1787 10.6875C35.8544 9.03537 35.3566 7.43891 34.6846 5.90039C34.2687 4.95369 33.3309 4.58998 32.4072 4.1123C32.3735 4.0946 32.3471 4.06453 32.334 4.02832C32.3211 3.99212 32.3222 3.95209 32.3369 3.91699C32.75 2.90758 33.3786 2.07667 34.2227 1.4248C34.7878 2.64832 35.6626 3.78555 36.1572 4.875C37.1028 6.95643 37.7851 8.46316 37.9102 10.7959C38.1294 14.8714 37.899 18.8917 37.2197 22.8555C36.9227 24.5914 36.661 26.2886 36.4346 27.9463C36.3241 28.7527 36.1422 29.5089 35.8887 30.2129C35.1931 32.1295 34.5355 33.8455 34.0273 36.1309C33.455 35.6205 33.0614 35.2041 32.8477 34.8838C32.2148 33.9393 31.9751 32.3888 30.5488 31.8691C30.21 31.7444 29.5607 31.7238 28.6025 31.8076C27.4415 31.9082 26.2824 31.9222 25.125 31.8496C24.3752 31.5721 23.7001 31.1533 23.1006 30.5928C21.7746 29.3597 20.5801 28.0142 19.5186 26.5576C19.5117 26.5475 19.5015 26.5395 19.4902 26.5352C19.479 26.5309 19.4667 26.5302 19.4551 26.5332C19.4435 26.5362 19.4328 26.5426 19.4248 26.5518C19.4169 26.5611 19.4116 26.5736 19.4102 26.5859L18.7441 31.626C18.4706 32.5144 18.1743 33.4598 17.8555 34.46C17.3482 36.0449 16.3411 36.9904 14.834 37.2959L13.5381 37.3486C12.2883 37.384 11.3425 37.3331 10.7012 37.1953C10.3606 37.1227 10.0007 36.8664 9.62207 36.4268C8.76883 35.4339 8.1624 34.48 7.80371 33.5654C8.53737 30.3784 8.9703 27.3391 9.10254 24.4482C9.22752 21.684 9.24011 18.6144 9.13867 15.2393L8.50781 8.65918L7.71191 4.44824ZM17.1426 34.667C17.1945 34.5647 17.243 34.4593 17.29 34.3516C17.1921 34.5756 17.0845 34.788 16.9658 34.9883L17.1426 34.667ZM16.4883 24.1699C16.5273 24.3185 16.5642 24.4689 16.5996 24.6211L16.4883 24.1689C16.4493 24.0204 16.4088 23.8736 16.3662 23.7285L16.4883 24.1699ZM15.5293 36.9219V36.9209V36.9219ZM11.3066 4.13574V4.13477V4.13574ZM10.7588 15.7539V15.7529V15.7539ZM10.6943 2.94531V2.94434V2.94531Z" fill="#6C03AD"/>
<path d="M18.0732 5.10745L18.489 6.30613C18.5024 6.34638 18.5283 6.38114 18.5631 6.40529C18.5978 6.42944 18.6395 6.44169 18.6819 6.44024L20.8803 6.33406C22.5905 6.45142 24.0533 6.85377 25.2689 7.54112C27.4319 8.76308 29.3631 10.2971 31.0624 12.143C32.6113 13.8251 33.8667 15.3274 34.8287 16.6499C35.508 17.585 36.0515 18.2649 36.4591 18.6897C36.5841 19.8017 36.5207 20.9045 36.2689 21.9979C36.2597 22.0393 36.2396 22.0773 36.2108 22.1078C36.1821 22.1382 36.1457 22.1601 36.1055 22.171C36.0654 22.1819 36.023 22.1814 35.9828 22.1696C35.9427 22.1578 35.9063 22.1352 35.8776 22.1041C34.4917 20.5673 32.5488 20.5589 30.7037 21.101C29.9301 20.0336 29.1566 18.9653 28.383 17.8961C26.6058 15.4392 24.6339 13.2253 22.4673 11.2545L19.258 8.98848C19.2361 8.97256 19.2101 8.96355 19.1833 8.96253C19.1564 8.96151 19.1299 8.96853 19.1068 8.98274C19.0838 8.99694 19.0653 9.01773 19.0535 9.04256C19.0418 9.06739 19.0373 9.09519 19.0406 9.1226L19.5705 14.2526L19.7064 16.6164C19.71 16.6929 19.7365 16.7669 19.7825 16.8288L23.6575 21.9336C22.1656 22.0622 20.8694 22.0622 19.9428 23.4955C19.9275 23.5192 19.9059 23.5378 19.8805 23.5489C19.8551 23.56 19.8271 23.5633 19.7999 23.5582C19.7727 23.5532 19.7476 23.54 19.7276 23.5205C19.7076 23.5009 19.6936 23.4757 19.6874 23.448C19.5805 22.9823 19.5008 22.4263 19.4482 21.7799C19.2707 19.5987 19.0533 17.4332 18.7961 15.2836C18.6022 13.6556 18.3613 10.2635 18.0732 5.10745Z" fill="#6C03AD"/>
<path d="M25.1246 31.85C25.1807 31.8947 25.178 31.9478 25.1164 32.0093C25.1053 32.0207 25.0921 32.0296 25.0776 32.0354C25.0631 32.0412 25.0476 32.0437 25.0322 32.0428L18.7441 31.6265L19.4099 26.5859C19.4113 26.5734 19.4163 26.5617 19.4243 26.5522C19.4323 26.5428 19.443 26.5361 19.4548 26.5331C19.4666 26.53 19.4791 26.5308 19.4905 26.5352C19.5019 26.5397 19.5117 26.5476 19.5186 26.5579C20.5802 28.0146 21.774 29.3595 23.1001 30.5926C23.6998 31.1533 24.3746 31.5724 25.1246 31.85Z" fill="#FDC008"/>
<path d="M19.041 9.12207C19.0378 9.09498 19.0422 9.06754 19.0537 9.04297C19.0655 9.01814 19.0844 8.99663 19.1074 8.98242C19.1304 8.96833 19.1569 8.96188 19.1836 8.96289C19.2104 8.96391 19.2368 8.97237 19.2588 8.98828L22.4678 11.2549C22.3715 11.2888 22.2773 11.3239 22.1855 11.3613C22.2773 11.3239 22.3715 11.2888 22.4678 11.2549C24.6344 13.2256 26.6066 15.4396 28.3838 17.8965C29.1572 18.9655 29.9307 20.0335 30.7041 21.1006C32.1298 23.2856 33.72 25.4291 35.4736 27.5303C35.5215 27.5883 35.5553 27.657 35.5732 27.7305C35.5912 27.8042 35.5921 27.8813 35.5762 27.9551C35.4602 28.5044 35.2714 29.0976 35.0088 29.7344C34.1149 31.9163 31.8325 31.4785 30.3135 30.2969C29.4077 29.5928 28.4285 28.5285 27.376 27.1055C26.1097 25.3955 24.8702 23.6715 23.6582 21.9336L19.7832 16.8291C19.7372 16.7673 19.7106 16.6927 19.707 16.6162L19.5713 14.2529L19.041 9.12207ZM20.4121 12.6045C20.5239 12.4724 20.6446 12.3474 20.7744 12.2295C21.0339 11.994 21.3295 11.787 21.6611 11.6084H21.6602C21.1628 11.8763 20.747 12.2086 20.4121 12.6045Z" fill="#FECD19"/>
<path d="M36.1988 14.0372L36.4597 18.6895C36.0521 18.2647 35.5086 17.5848 34.8292 16.6497C33.8673 15.3272 32.6118 13.8249 31.0629 12.1428C29.3636 10.2969 27.4325 8.76288 25.2694 7.54092C24.0539 6.85357 22.591 6.45122 20.8809 6.33386C22.7848 6.04328 24.8147 5.94548 26.9705 6.04048C28.1825 6.09357 28.9814 6.14386 30.0167 6.59092C32.0367 7.46269 33.7097 8.48347 35.0357 9.65328C35.3944 9.96808 35.6236 10.4123 35.7233 10.9861C35.9008 11.9957 36.0593 13.0127 36.1988 14.0372Z" fill="#FECD19"/>
<path d="M34.0264 36.1309C34.5345 33.8454 35.1931 32.1296 35.8887 30.2129C36.1422 29.5089 36.3241 28.7536 36.4346 27.9473C36.661 26.2895 36.9226 24.5925 37.2197 22.8564C37.8991 18.8925 38.1294 14.8726 37.9102 10.7969C37.7851 8.46388 37.1029 6.95755 36.1572 4.87598C35.6627 3.78643 34.7878 2.64941 34.2227 1.42578C35.5514 0.540131 37.3636 0.726688 38.9287 0.950195C40.4649 1.16813 41.6143 1.97711 42.377 3.37598C43.241 4.95546 43.8833 6.1518 44.3018 6.96582C44.3869 7.13158 44.453 7.30353 44.502 7.48047C44.4151 7.3876 44.3767 7.45124 44.3857 7.6709C44.3876 7.71893 44.3947 7.76742 44.4072 7.81543C45.7741 12.6744 45.9971 17.858 45.5977 22.9209C45.5161 23.9435 45.3437 25.2122 45.0811 26.7266C44.8673 27.9613 44.6484 29.224 44.4238 30.5146C44.3785 30.861 44.2129 31.2397 43.9268 31.6494C43.878 31.72 43.8362 31.795 43.8037 31.873C43.5066 32.5939 43.1015 33.403 42.5889 34.3008C42.2157 34.9509 41.7793 35.4916 41.2793 35.9219C40.7016 36.3557 40.076 36.6263 39.4023 36.7344C38.0854 36.9449 36.6975 36.974 35.2393 36.8213L34.0264 36.1309ZM43.6562 27.4512V27.4502V27.4512ZM38.1045 24.0234H38.1035H38.1045Z" fill="#6C03AD"/>
<path d="M44.5029 7.47897C45.6406 9.65093 46.7375 11.8443 47.7937 14.0591C48.4096 15.35 48.7891 16.2367 48.9322 16.7191C49.4341 18.4217 49.3217 20.0721 48.5953 21.6703C47.2764 24.5724 45.886 27.5202 44.4241 30.5137C44.6487 29.2228 44.8679 27.9598 45.0817 26.7248C45.3444 25.2104 45.5165 23.9419 45.598 22.9193C45.9975 17.8563 45.7746 12.6732 44.4078 7.81426C44.3951 7.766 44.3879 7.71725 44.386 7.66897C44.377 7.44916 44.4159 7.38583 44.5029 7.47897Z" fill="#FDC008"/>
<path d="M5.97074 12.1901L3.41112 15.3942C3.38254 15.43 3.38758 15.4828 3.42237 15.5122L3.44757 15.5335C3.48236 15.5629 3.53373 15.5577 3.56231 15.5219L6.12193 12.3178C6.1505 12.282 6.14547 12.2292 6.11068 12.1998L6.08548 12.1785C6.05069 12.1491 5.99932 12.1543 5.97074 12.1901Z" fill="#EF9E14"/>
<path d="M6.80334 11.985L4.17092 15.3515C4.13801 15.3936 4.14451 15.4552 4.18545 15.489L4.18969 15.4925C4.23062 15.5264 4.29049 15.5197 4.3234 15.4776L6.95582 12.1111C6.98873 12.069 6.98223 12.0074 6.94129 11.9736L6.93706 11.9701C6.89612 11.9362 6.83625 11.9429 6.80334 11.985Z" fill="#EF9E14"/>
</g>
<defs>
<clipPath id="clip0_811_2176">
<rect width="38" height="50" fill="white" transform="matrix(0 -1 1 0 0 38)"/>
</clipPath>
</defs>
</svg>
