<?xml version="1.0" encoding="utf-8"?>
<!-- Generator: Adobe Illustrator 27.2.0, SVG Export Plug-In . SVG Version: 6.00 Build 0)  -->
<svg version="1.1" id="Слой_1" xmlns="http://www.w3.org/2000/svg" xmlns:xlink="http://www.w3.org/1999/xlink" x="0px" y="0px"
	 viewBox="0 0 52 38" enable-background="new 0 0 52 38" xml:space="preserve">
<g>
	<defs>
		<rect id="SVGID_1_" width="52" height="38"/>
	</defs>
	<clipPath id="SVGID_00000119075937324407488220000005718811635941146762_">
		<use xlink:href="#SVGID_1_"  overflow="visible"/>
	</clipPath>
	<g clip-path="url(#SVGID_00000119075937324407488220000005718811635941146762_)">
		<path fill="#6C03AD" d="M0,17.9c0.3-1.4,0.9-2.9,1.8-4.4C4.8,8.2,7.1,4.3,8.5,1.9C9.2,0.8,10.4,0.2,12,0h3.3
			c2.8,0.5,3.8,2.9,4.4,5.3c0,0.1,0.1,0.1,0.1,0.1c0.1,0,0.1,0.1,0.2,0c4.1-0.4,8.1-0.4,12.1,0c0.1,0,0.1,0,0.1,0
			c0,0,0.1-0.1,0.1-0.1c1-2.7,2-4.8,5-5.3h2c1.4,0.1,3.2,0.2,4.2,1.3c0.5,0.6,1,1.2,1.4,1.9c0,0,2,3.7,5.9,11.1
			c0.5,0.9,0.9,2,1.2,3.3V20c-0.1,0.5-0.3,1-0.5,1.4c-2.5,5.4-4.5,9.6-6.2,12.7c-0.9,1.6-1.6,2.8-3.3,3.2c-2,0.5-4.8,0.8-6.5-0.3
			c-1.5-1-2.3-2.6-2.8-4.2c0-0.1-0.1-0.1-0.1-0.2c-0.1,0-0.1-0.1-0.2,0c-4.1,0.5-8.2,0.5-12.2,0c0,0-0.1,0-0.1,0
			c0,0-0.1,0.1-0.1,0.1c-0.3,1.8-1,3.3-2.2,4.6c-0.2,0.2-0.8,0.5-1.7,0.7h-4.1c-1.3-0.1-2.4-0.8-3.2-2.1c-3.3-5.3-5.9-9.7-7.7-13.1
			C0.5,22.1,0.2,21.2,0,20V17.9z M0.8,19c0,1.4,0.2,2.4,0.6,3.1c2.1,3.7,4.3,7.4,6.6,11.2c0,0,0,0,0,0c0,0,0,0,0.1,0c0,0,0,0,0,0
			c0,0,0,0,0,0c1-4.7,1.4-9.5,1.4-14.3c0-4.9-0.5-9.6-1.5-14.3c0,0,0,0,0-0.1c0,0,0,0-0.1,0c0,0,0,0-0.1,0c0,0,0,0,0,0
			C5.6,8.5,3.4,12.3,1.4,16C1,16.7,0.8,17.7,0.8,19z M20.2,26.8l-0.6,4.7c0,0,0,0,0,0.1s0,0,0,0.1c0,0,0,0,0.1,0c0,0,0,0,0.1,0
			L26,32c0,0,0,0,0.1,0c0,0,0,0,0-0.1c0,0,0,0,0-0.1c0,0,0,0-0.1,0c-2.2-0.9-3.5-2.6-5.7-5.1c0,0,0,0-0.1,0
			C20.3,26.7,20.3,26.7,20.2,26.8C20.2,26.7,20.2,26.7,20.2,26.8C20.2,26.7,20.2,26.8,20.2,26.8z M19.8,9.1l0.7,7.6
			c0,0.1,0,0.1,0.1,0.2c2.2,2.7,4.8,6.1,7.9,10.3c0.8,1.1,2.2,2.6,3.3,3.3c2.9,1.9,4.9,0.3,5.2-2.6c0-0.1,0-0.1,0-0.2
			c0-0.1,0-0.1-0.1-0.2c-3.6-4.2-6.5-8.9-10.2-13c-1.9-2.2-4.2-4-6.7-5.5c0,0,0,0-0.1,0c0,0,0,0-0.1,0C19.9,9,19.9,9.1,19.8,9.1
			C19.8,9.1,19.8,9.1,19.8,9.1z M37.9,18.4c-0.1-2.9-0.3-5.3-0.7-7.3c-0.1-0.6-0.3-1.1-0.5-1.2c-1.5-1.3-3.2-2.3-5.2-3.2
			C30,6.1,28.7,6,27.3,6c-1.5,0-3.3,0-5.3,0.2c0,0,0,0,0,0c0,0,0,0,0,0c0,0,0,0,0,0c0,0,0,0,0,0c3.1,0.3,5.3,1.6,7.9,3.6
			c1.5,1.2,3.3,3,5.2,5.4c0.6,0.7,1.4,1.7,2.6,3.2c0,0,0,0,0.1,0c0,0,0,0,0.1,0C37.8,18.5,37.9,18.5,37.9,18.4
			C37.9,18.5,37.9,18.4,37.9,18.4z M46.3,30.3c1.7-3.4,3.1-6.3,4.2-8.7c1.1-2.4,0.7-4.4-0.6-6.9c-1.4-2.9-2.7-5.3-3.8-7.2
			c0,0,0,0,0,0c0,0,0,0,0,0c0,0,0,0,0,0c0,0,0,0,0,0c1.5,5.6,1.9,11.3,1.1,17.1c-0.2,1.8-0.6,3.6-1,5.6
			C46.2,30.3,46.2,30.3,46.3,30.3C46.2,30.3,46.3,30.3,46.3,30.3C46.3,30.3,46.3,30.3,46.3,30.3C46.3,30.3,46.3,30.3,46.3,30.3z"/>
		<path fill="#FDC008" d="M9.6,19c0,4.9-0.3,9.6-1.4,14.3c0,0,0,0,0,0c0,0,0,0,0,0c0,0,0,0-0.1,0c0,0,0,0,0,0
			c-2.3-3.8-4.6-7.6-6.6-11.2c-0.4-0.7-0.6-1.7-0.6-3.1c0-1.4,0.2-2.4,0.5-3.1c2-3.7,4.2-7.5,6.5-11.3c0,0,0,0,0,0c0,0,0,0,0.1,0
			c0,0,0,0,0.1,0c0,0,0,0,0,0.1C9.1,9.4,9.5,14.1,9.6,19z"/>
		<path fill="#FDC008" d="M20.4,26.7c2.2,2.6,3.5,4.2,5.7,5.1c0,0,0,0,0.1,0c0,0,0,0,0,0.1c0,0,0,0,0,0.1c0,0,0,0-0.1,0l-6.4-0.4
			c0,0-0.1,0-0.1,0c0,0,0,0-0.1,0c0,0,0,0,0-0.1c0,0,0,0,0-0.1l0.6-4.7c0,0,0,0,0-0.1c0,0,0,0,0.1,0C20.3,26.7,20.3,26.7,20.4,26.7
			C20.3,26.7,20.4,26.7,20.4,26.7z"/>
		<path fill="#FECD19" d="M19.8,9.1C19.8,9.1,19.8,9.1,19.8,9.1c0-0.1,0-0.1,0.1-0.1c0,0,0,0,0.1,0c0,0,0,0,0.1,0
			c2.5,1.5,4.8,3.3,6.7,5.5c3.6,4.1,6.5,8.8,10.2,13c0,0,0.1,0.1,0.1,0.2c0,0.1,0,0.1,0,0.2c-0.3,2.9-2.3,4.5-5.2,2.6
			c-1.1-0.7-2.4-2.2-3.3-3.3c-3.1-4.1-5.7-7.6-7.9-10.3c0,0-0.1-0.1-0.1-0.2L19.8,9.1z"/>
		<path fill="#FECD19" d="M37.9,18.4C37.9,18.4,37.9,18.5,37.9,18.4c0,0.1-0.1,0.1-0.1,0.1c0,0,0,0-0.1,0c0,0,0,0-0.1,0
			c-1.1-1.4-2-2.5-2.6-3.2c-2-2.4-3.7-4.2-5.2-5.4c-2.6-2-4.7-3.3-7.9-3.6c0,0,0,0,0,0c0,0,0,0,0,0c0,0,0,0,0,0c0,0,0,0,0,0
			C24,6.1,25.8,6,27.3,6c1.4,0,2.7,0.1,4.1,0.7c2,0.8,3.7,1.9,5.2,3.2c0.2,0.2,0.4,0.6,0.5,1.2C37.6,13.1,37.8,15.5,37.9,18.4z"/>
		<path fill="#FDC008" d="M46.3,30.3C46.3,30.3,46.3,30.3,46.3,30.3C46.3,30.3,46.3,30.3,46.3,30.3C46.3,30.3,46.2,30.3,46.3,30.3
			c-0.1,0-0.1,0-0.1,0c0.4-1.9,0.7-3.8,1-5.6c0.8-5.8,0.4-11.5-1.1-17.1c0,0,0,0,0,0c0,0,0,0,0,0c0,0,0,0,0,0c0,0,0,0,0,0
			c1.1,1.9,2.3,4.3,3.8,7.2c1.2,2.4,1.7,4.5,0.6,6.9C49.4,24,48,26.9,46.3,30.3z"/>
	</g>
</g>
</svg>
