<svg width="45" height="48" viewBox="0 0 45 48" fill="none" xmlns="http://www.w3.org/2000/svg">
<g clip-path="url(#clip0_811_1193)">
<mask id="mask0_811_1193" style="mask-type:luminance" maskUnits="userSpaceOnUse" x="-8" y="-7" width="58" height="64">
<path d="M49.7384 9.56085L14.187 -6.77734L-7.09863 40.2313L28.4528 56.5695L49.7384 9.56085Z" fill="white"/>
</mask>
<g mask="url(#mask0_811_1193)">
<mask id="mask1_811_1193" style="mask-type:luminance" maskUnits="userSpaceOnUse" x="-7" y="-7" width="222" height="140">
<path d="M214.226 85.1538L14.8931 -6.45312L-6.39258 40.5554L192.941 132.163L214.226 85.1538Z" fill="white"/>
</mask>
<g mask="url(#mask1_811_1193)">
<path d="M4.89219 27.3502L4.98233 27.3916C6.02028 27.8686 6.63406 28.9212 6.58633 30.1099C6.45634 33.4071 8.32206 36.631 11.5878 37.9667C15.3708 39.4851 19.776 37.8224 21.6479 34.1701C23.7261 30.0621 21.9995 25.0861 17.8479 23.1782C14.7795 21.768 11.341 22.499 9.04096 24.689C8.181 25.5046 6.94457 25.7069 5.90672 25.23L5.86154 25.2092C4.10168 24.4004 3.622 22.0887 4.92672 20.6519C9.24814 15.9241 16.2038 14.1676 22.3745 16.6732L21.3877 5.48839C21.207 3.47927 22.6561 1.72376 24.603 1.5178C26.595 1.33257 28.3329 2.79168 28.5136 4.80083L29.7427 17.8582L31.4519 7.58208C31.747 5.84661 33.3921 4.62145 35.112 4.91657C36.832 5.21169 38.0439 6.86935 37.7488 8.60488L35.7986 20.2561L38.5212 14.2429C39.0783 13.0129 40.5041 12.5126 41.6775 13.0518C42.8958 13.6118 43.3896 15.0495 42.8533 16.2338L33.0968 37.7807C33.0763 37.8262 33.0557 37.8717 33.0351 37.9172C29.1985 46.3902 19.2494 50.183 10.8107 46.3049C10.4948 46.1596 10.224 46.0352 9.90825 45.89C3.59061 42.9867 0.0525365 36.3528 0.821969 29.7172C1.10943 27.7581 3.13223 26.5414 4.89219 27.3502Z" fill="white"/>
</g>
<mask id="mask2_811_1193" style="mask-type:luminance" maskUnits="userSpaceOnUse" x="7" y="23" width="15" height="15">
<path d="M21.8747 23.1719H7.44336V37.7098H21.8747V23.1719Z" fill="white"/>
</mask>
<g mask="url(#mask2_811_1193)">
<path opacity="0.989" fill-rule="evenodd" clip-rule="evenodd" d="M13.9969 23.1582C14.4292 23.1582 14.8615 23.1582 15.2938 23.1582C17.8203 23.4674 19.7229 24.7261 21.0014 26.9345C21.4721 27.8283 21.7584 28.7747 21.861 29.7741C21.861 30.2093 21.861 30.6449 21.861 31.0801C21.5544 33.6255 20.3045 35.5422 18.1123 36.8299C17.2253 37.304 16.2859 37.5928 15.2938 37.6962C14.8615 37.6962 14.4292 37.6962 13.9969 37.6962C11.4705 37.3869 9.56789 36.1282 8.28954 33.9197C7.81868 33.026 7.53238 32.0797 7.42969 31.0801C7.42969 30.6449 7.42969 30.2093 7.42969 29.7741C7.73641 27.2287 8.98631 25.3121 11.1785 24.0243C12.0655 23.5502 13.005 23.2616 13.9969 23.1582Z" fill="#F1A800"/>
<path fill-rule="evenodd" clip-rule="evenodd" d="M13.9964 23.8961C16.7024 23.7612 18.7834 24.8307 20.2397 27.1047C21.3217 29.0912 21.4158 31.1261 20.5217 33.2095C19.3832 35.4517 17.5652 36.6964 15.0676 36.9433C12.4515 37.0243 10.4455 35.9596 9.04963 33.749C8.03111 31.884 7.8902 29.9532 8.6269 27.9566C9.67893 25.6143 11.4689 24.2609 13.9964 23.8961Z" fill="#BF8604"/>
<path fill-rule="evenodd" clip-rule="evenodd" d="M14.25 24.1219C16.5346 24.0634 18.3619 24.9436 19.7323 26.7624C20.7479 28.2424 21.0956 29.8702 20.7754 31.6464C20.2658 33.8911 18.9553 35.4482 16.8433 36.3172C14.494 37.1096 12.3706 36.7122 10.473 35.1246C8.87451 33.5873 8.20288 31.7086 8.45792 29.4884C8.85536 27.2904 10.0438 25.6955 12.0236 24.7039C12.7356 24.3802 13.4781 24.1861 14.25 24.1219Z" fill="#FED012"/>
<path fill-rule="evenodd" clip-rule="evenodd" d="M15.6027 32.8668C14.8514 32.8668 14.0995 32.8668 13.3482 32.8668C13.3482 33.2549 13.3482 33.6429 13.3482 34.031C13.2692 34.3813 13.0484 34.5613 12.6857 34.5705C12.3265 34.5209 12.1292 34.3126 12.0936 33.9458C12.0796 33.5863 12.0749 33.2265 12.0796 32.8668C11.8821 32.8715 11.6849 32.8668 11.4878 32.8527C11.1391 32.6946 11.0028 32.4248 11.0791 32.0434C11.1726 31.8165 11.337 31.6697 11.5725 31.6032C11.7412 31.5891 11.9104 31.5844 12.0796 31.5891C12.0796 31.4566 12.0796 31.3241 12.0796 31.1915C11.9009 31.1962 11.7223 31.1915 11.5442 31.1773C11.1029 30.9936 10.9666 30.6766 11.1354 30.2261C11.2227 30.0757 11.3496 29.9763 11.5161 29.9279C11.7036 29.9137 11.8915 29.9091 12.0796 29.9137C12.0749 28.8631 12.0796 27.8126 12.0936 26.7619C12.1603 26.4867 12.3343 26.3305 12.6152 26.2935C13.6955 26.2745 14.7763 26.2745 15.8566 26.2935C16.7915 26.4313 17.4634 26.9281 17.8719 27.7842C18.226 28.8813 17.9958 29.8327 17.1811 30.6378C16.6657 31.0298 16.083 31.2094 15.4335 31.1773C14.748 31.1915 14.062 31.1963 13.3763 31.1915C13.3763 31.3335 13.3763 31.4754 13.3763 31.6175C14.2422 31.604 15.1068 31.6181 15.9692 31.66C16.3975 31.973 16.4444 32.3327 16.1103 32.739C15.9514 32.8231 15.7822 32.8656 15.6027 32.8668Z" fill="#33A96A"/>
<path fill-rule="evenodd" clip-rule="evenodd" d="M13.376 27.5623C14.146 27.5576 14.9167 27.5623 15.6869 27.5765C16.4006 27.6278 16.7952 28.0112 16.871 28.7264C16.8227 29.3283 16.5129 29.7117 15.9408 29.8764C15.7342 29.8906 15.5276 29.8952 15.3209 29.8906C14.6724 29.8906 14.024 29.8906 13.376 29.8906C13.376 29.1145 13.376 28.3384 13.376 27.5623Z" fill="#FFD113"/>
<path fill-rule="evenodd" clip-rule="evenodd" d="M13.3755 27.5605C13.3755 28.3366 13.3755 29.1127 13.3755 29.8888C14.0235 29.8888 14.6719 29.8888 15.3204 29.8888C14.6676 29.9172 14.0097 29.9266 13.3472 29.9172C13.3379 29.1267 13.3472 28.3412 13.3755 27.5605Z" fill="#FFE47A"/>
<path fill-rule="evenodd" clip-rule="evenodd" d="M15.6033 32.8652C14.8659 32.8936 14.1239 32.9031 13.3769 32.8937C13.3859 33.2772 13.3765 33.6558 13.3486 34.0294C13.3486 33.6413 13.3486 33.2534 13.3486 32.8652C14.1001 32.8652 14.8518 32.8652 15.6033 32.8652Z" fill="#FFE789"/>
</g>
</g>
</g>
<defs>
<clipPath id="clip0_811_1193">
<rect width="45" height="48" fill="white"/>
</clipPath>
</defs>
</svg>
