<svg width="49" height="36" viewBox="0 0 49 36" fill="none" xmlns="http://www.w3.org/2000/svg">
<path d="M45.9372 1.02344H3.06217C1.93459 1.02344 1.02051 1.93922 1.02051 3.06889V33.7507C1.02051 34.8804 1.93459 35.7962 3.06217 35.7962H45.9372C47.0648 35.7962 47.9788 34.8804 47.9788 33.7507V3.06889C47.9788 1.93922 47.0648 1.02344 45.9372 1.02344Z" fill="#F07720"/>
<path d="M48 7H1V14H48V7Z" fill="white"/>
<path d="M33 30.9333V25.0667C33 24.48 33.5211 24 34.1579 24H42.8421C43.4789 24 44 24.48 44 25.0667V30.9333C44 31.52 43.4789 32 42.8421 32H34.1579C33.5211 32 33 31.52 33 30.9333Z" fill="#FFD18C"/>
<path d="M44 27.1997V26.6664H40.5263C40.2079 26.6664 39.9474 26.4264 39.9474 26.1331C39.9474 25.8397 40.2079 25.5997 40.5263 25.5997H40.8158V25.0664H40.5263C39.8895 25.0664 39.3684 25.5464 39.3684 26.1331C39.3684 26.7197 39.8895 27.1997 40.5263 27.1997H41.3947V28.7997H40.5263C39.7158 28.7997 39.0789 29.3864 39.0789 30.1331C39.0789 30.8797 39.7158 31.4664 40.5263 31.4664H41.1053V30.9331H40.5263C40.0342 30.9331 39.6579 30.5864 39.6579 30.1331C39.6579 29.6797 40.0342 29.3331 40.5263 29.3331H44V28.7997H41.9737V27.1997H44ZM36.4737 28.7997H35.6053V27.1997H36.4737C37.1105 27.1997 37.6316 26.7197 37.6316 26.1331C37.6316 25.5464 37.1105 25.0664 36.4737 25.0664H35.6053V25.5997H36.4737C36.7921 25.5997 37.0526 25.8397 37.0526 26.1331C37.0526 26.4264 36.7921 26.6664 36.4737 26.6664H33V27.1997H35.0263V28.7997H33V29.3331H36.4737C36.9658 29.3331 37.3421 29.6797 37.3421 30.1331C37.3421 30.5864 36.9658 30.9331 36.4737 30.9331H35.8947V31.4664H36.4737C37.2842 31.4664 37.9211 30.8797 37.9211 30.1331C37.9211 29.3864 37.2842 28.7997 36.4737 28.7997Z" fill="#9E9E9E"/>
</svg>
