<svg width="49" height="50" viewBox="0 0 49 50" fill="none" xmlns="http://www.w3.org/2000/svg">
<mask id="mask0_811_1293" style="mask-type:luminance" maskUnits="userSpaceOnUse" x="0" y="0" width="49" height="50">
<path d="M48.9997 0.318359H0V49.68H48.9997V0.318359Z" fill="white"/>
</mask>
<g mask="url(#mask0_811_1293)">
<path opacity="0.989" fill-rule="evenodd" clip-rule="evenodd" d="M22.2513 0.273438C23.7191 0.273438 25.1869 0.273438 26.6548 0.273438C35.2331 1.32339 41.693 5.59689 46.0339 13.0955C47.6323 16.1302 48.6044 19.3435 48.9528 22.7369C48.9528 24.2146 48.9528 25.6934 48.9528 27.1711C47.9116 35.8137 43.6677 42.3217 36.2245 46.694C33.2127 48.3037 30.0231 49.284 26.6548 49.6351C25.1869 49.6351 23.7191 49.6351 22.2513 49.6351C13.673 48.5851 7.21311 44.3111 2.87265 36.8125C1.2739 33.7783 0.301794 30.565 -0.046875 27.1711C-0.046875 25.6934 -0.046875 24.2146 -0.046875 22.7369C0.99456 14.0942 5.23842 7.58679 12.6816 3.21403C15.6934 1.60431 18.8835 0.624445 22.2513 0.273438Z" fill="#F1A800"/>
<path fill-rule="evenodd" clip-rule="evenodd" d="M22.2505 2.7787C31.4383 2.32075 38.5041 5.95209 43.4489 13.6732C47.1225 20.4181 47.442 27.3272 44.4063 34.4011C40.5407 42.0143 34.3678 46.2402 25.8875 47.0788C17.005 47.3536 10.1941 43.7386 5.45446 36.2329C1.99622 29.9004 1.51778 23.3449 4.01915 16.5657C7.59117 8.61279 13.6686 4.01746 22.2505 2.7787Z" fill="#BF8604"/>
<path fill-rule="evenodd" clip-rule="evenodd" d="M23.1105 3.54443C30.8676 3.3459 37.072 6.33458 41.7248 12.51C45.1734 17.5351 46.3537 23.0622 45.2668 29.0928C43.5365 36.7147 39.0868 42.0013 31.9159 44.9521C23.9389 47.6425 16.7293 46.2932 10.2862 40.9027C4.85886 35.6831 2.57841 29.3041 3.44437 21.7656C4.79384 14.3029 8.82905 8.88732 15.551 5.52051C17.9686 4.42144 20.4898 3.7624 23.1105 3.54443Z" fill="#FED012"/>
<path fill-rule="evenodd" clip-rule="evenodd" d="M27.7033 33.2362C25.1522 33.2362 22.5995 33.2362 20.0484 33.2362C20.0484 34.5537 20.0484 35.8713 20.0484 37.1888C19.7802 38.3785 19.0306 38.9894 17.7989 39.0206C16.5795 38.8523 15.9096 38.1452 15.7887 36.8997C15.7409 35.6789 15.7252 34.4575 15.7409 33.2362C15.0705 33.252 14.4011 33.2362 13.7317 33.1881C12.5478 32.6513 12.0851 31.7354 12.3441 30.4404C12.6616 29.6698 13.2197 29.1714 14.0192 28.9458C14.5921 28.8977 15.1665 28.8818 15.7409 28.8977C15.7409 28.4479 15.7409 27.9982 15.7409 27.5479C15.1345 27.5638 14.5281 27.5479 13.9232 27.4998C12.4249 26.8761 11.9622 25.7995 12.5351 24.2701C12.8317 23.7595 13.2624 23.4218 13.8277 23.2575C14.4646 23.2094 15.1025 23.1936 15.7409 23.2094C15.7252 19.642 15.7409 16.0752 15.7887 12.5078C16.0152 11.5735 16.6059 11.0429 17.5597 10.9175C21.2277 10.853 24.8972 10.853 28.5652 10.9175C31.7396 11.3852 34.021 13.0721 35.4081 15.979C36.6103 19.7039 35.8286 22.9341 33.0626 25.668C31.3124 26.9989 29.3342 27.6088 27.1289 27.4998C24.8012 27.5479 22.472 27.5643 20.1439 27.5479C20.1439 28.0299 20.1439 28.5119 20.1439 28.9944C23.0841 28.9483 26.0197 28.9964 28.9477 29.1387C30.4018 30.2014 30.5613 31.4228 29.4266 32.8023C28.8872 33.0878 28.3128 33.2321 27.7033 33.2362Z" fill="#DE2F37"/>
<path fill-rule="evenodd" clip-rule="evenodd" d="M20.1426 15.2266C22.7572 15.2108 25.3739 15.2266 27.989 15.2747C30.4122 15.4492 31.752 16.7509 32.0095 19.1793C31.8455 21.2229 30.7936 22.5246 28.8509 23.0839C28.1495 23.132 27.4481 23.1479 26.7462 23.132C24.5445 23.132 22.3428 23.132 20.1426 23.132C20.1426 20.4969 20.1426 17.8618 20.1426 15.2266Z" fill="#FFD113"/>
<path fill-rule="evenodd" clip-rule="evenodd" d="M20.142 15.2207C20.142 17.8558 20.142 20.4909 20.142 23.1261C22.3422 23.1261 24.5439 23.1261 26.7456 23.1261C24.5291 23.2222 22.2954 23.2545 20.046 23.2222C20.0145 20.5385 20.046 17.8712 20.142 15.2207Z" fill="#FFE47A"/>
<path fill-rule="evenodd" clip-rule="evenodd" d="M27.7063 33.2305C25.2023 33.3267 22.6832 33.3589 20.1468 33.3272C20.1772 34.6294 20.1452 35.9147 20.0508 37.1831C20.0508 35.8656 20.0508 34.5485 20.0508 33.2305C22.6024 33.2305 25.1546 33.2305 27.7063 33.2305Z" fill="#FFE789"/>
</g>
</svg>
