<?xml version="1.0" encoding="utf-8"?>
<!-- Generator: Adobe Illustrator 27.2.0, SVG Export Plug-In . SVG Version: 6.00 Build 0)  -->
<svg version="1.1" id="Слой_1" xmlns="http://www.w3.org/2000/svg" xmlns:xlink="http://www.w3.org/1999/xlink" x="0px" y="0px"
	 viewBox="0 0 38 52" enable-background="new 0 0 38 52" xml:space="preserve">
<g>
	<defs>
		<rect id="SVGID_1_" width="38" height="52"/>
	</defs>
	<clipPath id="SVGID_00000051345569941037003010000009608811222164868489_">
		<use xlink:href="#SVGID_1_"  overflow="visible"/>
	</clipPath>
	<g clip-path="url(#SVGID_00000051345569941037003010000009608811222164868489_)">
		<path fill="#6C03AD" d="M20.1,0c1.4,0.3,2.9,0.9,4.4,1.8c5.4,3.1,9.2,5.3,11.6,6.7c1.1,0.7,1.8,1.8,1.9,3.5v3.3
			c-0.5,2.8-2.9,3.8-5.3,4.4c-0.1,0-0.1,0.1-0.1,0.1c0,0.1-0.1,0.1,0,0.2c0.4,4.1,0.4,8.1,0,12.1c0,0.1,0,0.1,0,0.1
			c0,0,0.1,0.1,0.1,0.1c2.6,1,4.8,2,5.3,5v2c-0.1,1.4-0.2,3.2-1.3,4.2c-0.6,0.5-1.2,1-1.9,1.4c0,0-3.7,2-11.1,5.9
			c-0.9,0.5-2,0.9-3.3,1.2H18c-0.5-0.1-1-0.3-1.4-0.5C11.2,49,7,46.9,3.9,45.3c-1.6-0.9-2.8-1.6-3.2-3.3c-0.4-2-0.8-4.8,0.3-6.5
			c1-1.5,2.6-2.3,4.2-2.8c0.1,0,0.1-0.1,0.2-0.1c0-0.1,0.1-0.1,0-0.2C5,28.2,5,24.1,5.5,20c0,0,0-0.1,0-0.1c0,0-0.1-0.1-0.1-0.1
			c-1.8-0.3-3.3-1-4.6-2.2c-0.2-0.2-0.5-0.8-0.7-1.7v-4.1c0.1-1.3,0.8-2.4,2.1-3.2c5.3-3.3,9.7-5.9,13.1-7.7C15.9,0.5,16.8,0.2,18,0
			H20.1z M19,0.8c-1.4,0-2.4,0.2-3.1,0.6C12.2,3.5,8.5,5.7,4.7,8c0,0,0,0,0,0c0,0,0,0,0,0.1c0,0,0,0,0,0c0,0,0,0,0,0
			c4.7,1,9.5,1.4,14.3,1.4c4.9,0,9.6-0.5,14.3-1.5c0,0,0,0,0.1,0c0,0,0,0,0-0.1c0,0,0,0,0-0.1c0,0,0,0,0,0C29.5,5.6,25.7,3.4,22,1.4
			C21.3,1,20.3,0.8,19,0.8z M11.2,20.2l-4.7-0.6c0,0,0,0-0.1,0c0,0,0,0-0.1,0c0,0,0,0,0,0.1s0,0,0,0.1L6,26c0,0,0,0,0,0.1
			c0,0,0,0,0.1,0c0,0,0,0,0.1,0c0,0,0,0,0-0.1c0.9-2.2,2.6-3.5,5.1-5.7c0,0,0,0,0-0.1C11.3,20.3,11.3,20.3,11.2,20.2
			C11.3,20.2,11.3,20.2,11.2,20.2C11.3,20.2,11.2,20.2,11.2,20.2z M28.9,19.8l-7.6,0.7c-0.1,0-0.1,0-0.2,0.1
			c-2.7,2.2-6.1,4.8-10.3,7.9c-1.1,0.8-2.6,2.2-3.3,3.3c-1.9,2.9-0.3,4.9,2.6,5.2c0.1,0,0.1,0,0.2,0c0.1,0,0.1,0,0.2-0.1
			c4.2-3.6,8.9-6.5,13-10.2c2.2-1.9,4-4.2,5.5-6.7c0,0,0,0,0-0.1c0,0,0,0,0-0.1C29,19.9,28.9,19.9,28.9,19.8
			C28.9,19.8,28.9,19.8,28.9,19.8z M19.6,37.9c2.9-0.1,5.3-0.3,7.3-0.7c0.6-0.1,1.1-0.3,1.2-0.5c1.3-1.5,2.3-3.2,3.2-5.2
			c0.6-1.4,0.6-2.7,0.7-4.1c0-1.5,0-3.3-0.2-5.3c0,0,0,0,0,0c0,0,0,0,0,0c0,0,0,0,0,0c0,0,0,0,0,0c-0.3,3.1-1.6,5.3-3.6,7.9
			c-1.2,1.5-3,3.3-5.4,5.2c-0.7,0.6-1.8,1.4-3.2,2.6c0,0,0,0,0,0.1c0,0,0,0,0,0.1C19.5,37.8,19.5,37.9,19.6,37.9
			C19.5,37.9,19.6,37.9,19.6,37.9z M7.7,46.3c3.4,1.7,6.3,3.1,8.7,4.2c2.4,1.1,4.4,0.7,6.9-0.6c2.9-1.4,5.3-2.7,7.2-3.8c0,0,0,0,0,0
			c0,0,0,0,0,0c0,0,0,0,0,0c0,0,0,0,0,0c-5.6,1.5-11.3,1.9-17.1,1.1c-1.8-0.2-3.6-0.6-5.6-1C7.7,46.2,7.7,46.2,7.7,46.3
			C7.7,46.2,7.7,46.3,7.7,46.3C7.7,46.3,7.7,46.3,7.7,46.3C7.7,46.3,7.7,46.3,7.7,46.3z"/>
		<path fill="#FDC008" d="M19,9.6c-4.9,0-9.6-0.3-14.3-1.4c0,0,0,0,0,0c0,0,0,0,0,0c0,0,0,0,0-0.1c0,0,0,0,0,0
			c3.8-2.3,7.6-4.6,11.2-6.6C16.6,1,17.6,0.9,19,0.8c1.4,0,2.4,0.2,3.1,0.5c3.7,2,7.5,4.2,11.3,6.5c0,0,0,0,0,0c0,0,0,0,0,0.1
			c0,0,0,0,0,0.1c0,0,0,0-0.1,0C28.6,9.1,23.9,9.5,19,9.6z"/>
		<path fill="#FDC008" d="M11.3,20.4c-2.6,2.2-4.2,3.5-5.1,5.7c0,0,0,0,0,0.1c0,0,0,0-0.1,0c0,0,0,0-0.1,0c0,0,0,0,0-0.1l0.4-6.4
			c0,0,0-0.1,0-0.1c0,0,0,0,0-0.1c0,0,0,0,0.1,0c0,0,0,0,0.1,0l4.7,0.6c0,0,0,0,0.1,0c0,0,0,0,0,0.1C11.3,20.3,11.3,20.3,11.3,20.4
			C11.3,20.3,11.3,20.4,11.3,20.4z"/>
		<path fill="#FECD19" d="M28.9,19.8C28.9,19.8,28.9,19.8,28.9,19.8c0.1,0,0.1,0,0.1,0.1c0,0,0,0,0,0.1c0,0,0,0,0,0.1
			c-1.5,2.5-3.3,4.8-5.5,6.7c-4.1,3.6-8.8,6.5-13,10.2c0,0-0.1,0.1-0.2,0.1c-0.1,0-0.1,0-0.2,0c-2.9-0.3-4.5-2.3-2.6-5.2
			c0.7-1.1,2.2-2.4,3.3-3.3c4.1-3.1,7.6-5.7,10.3-7.9c0,0,0.1-0.1,0.2-0.1L28.9,19.8z"/>
		<path fill="#FECD19" d="M19.6,37.9C19.6,37.9,19.5,37.9,19.6,37.9c-0.1,0-0.1-0.1-0.1-0.1c0,0,0,0,0-0.1c0,0,0,0,0-0.1
			c1.4-1.1,2.5-2,3.2-2.6c2.4-2,4.2-3.7,5.4-5.2c2-2.6,3.3-4.7,3.6-7.9c0,0,0,0,0,0c0,0,0,0,0,0s0,0,0,0c0,0,0,0,0,0
			c0.2,2,0.3,3.7,0.2,5.3c0,1.4-0.1,2.7-0.7,4.1c-0.8,2-1.9,3.7-3.2,5.2c-0.2,0.2-0.6,0.4-1.2,0.5C24.9,37.6,22.5,37.8,19.6,37.9z"
			/>
		<path fill="#FDC008" d="M7.7,46.3C7.7,46.3,7.7,46.3,7.7,46.3C7.7,46.3,7.7,46.3,7.7,46.3C7.7,46.3,7.7,46.2,7.7,46.3
			c0-0.1,0-0.1,0-0.1c1.9,0.4,3.8,0.7,5.6,1c5.8,0.8,11.5,0.4,17.1-1.1c0,0,0,0,0,0c0,0,0,0,0,0c0,0,0,0,0,0c0,0,0,0,0,0
			c-1.9,1.1-4.3,2.3-7.2,3.8c-2.4,1.2-4.5,1.7-6.9,0.6C14,49.4,11.1,48,7.7,46.3z"/>
	</g>
</g>
</svg>
