<svg width="38" height="50" viewBox="0 0 38 50" fill="none" xmlns="http://www.w3.org/2000/svg">
<g clip-path="url(#clip0_811_2076)">
<path d="M3.58473 43.359C3.09483 43.0927 2.49596 42.6878 1.78811 42.1443C1.29635 41.7675 0.963848 41.2575 0.790612 40.6144C0.319338 38.8626 0.170318 37.2666 0.343554 35.8264C0.628554 33.435 2.9812 31.9948 5.2137 31.4269C5.30115 31.4051 5.37746 31.3531 5.42836 31.2806C5.47927 31.2081 5.50129 31.12 5.49032 31.0329C4.99483 27.1108 4.9911 23.1814 5.47914 19.2448C5.48263 19.2108 5.47306 19.1768 5.45234 19.1496C5.43163 19.1224 5.40129 19.104 5.36738 19.0981C4.22924 18.8988 3.13953 18.5374 2.09826 18.0139C2.02413 17.976 1.95544 17.9275 1.89429 17.8698C1.51149 17.503 1.13988 17.2965 0.793407 16.9323C-0.51424 15.56 -0.137035 11.9921 0.198259 10.4269C0.360318 9.67328 0.940564 8.99845 1.93899 8.40244C6.19909 5.86077 10.4545 3.43324 14.7053 1.11983C16.5327 0.123455 18.4476 -0.221653 20.45 0.0845061C21.4466 0.23668 22.9685 0.87255 25.0156 1.99212C30.3505 4.91059 34.0369 6.98759 36.0747 8.22309C37.1197 8.85715 37.7242 9.81096 37.8881 11.0845C38.1843 13.3889 38.3855 15.9242 36.4296 17.3671C35.2616 18.2285 34.1188 18.5302 32.7749 18.9568C32.7166 18.9753 32.6664 19.0123 32.632 19.062C32.5976 19.1117 32.581 19.1712 32.5849 19.2312C32.7134 21.1624 32.7926 22.4052 32.8224 22.9595C32.9677 25.686 32.8783 28.32 32.5541 30.8617C32.5479 30.9134 32.5605 30.9655 32.5896 31.0088C32.6188 31.0521 32.6626 31.0837 32.7134 31.0981C33.6541 31.3572 34.6516 31.7956 35.7059 32.4133C36.5106 32.8843 37.0694 33.4224 37.3824 34.0274C37.7605 34.7557 37.9608 35.5057 37.9831 36.2774C38.0241 37.7104 37.8993 39.0791 37.6087 40.3834C37.2483 41.984 35.1918 43.0682 33.6802 43.8264C30.7072 45.3227 27.7222 46.8318 24.725 48.3535C21.5034 49.9894 19.1619 50.7557 15.9878 49.2992C10.4387 46.7521 6.38723 44.8155 3.83341 43.4894C3.76448 43.4532 3.68159 43.4097 3.58473 43.359ZM18.2119 0.888854C17.2042 0.905158 16.2458 1.16512 15.3368 1.66875C11.7994 3.63251 8.16522 5.6778 4.43414 7.80462C3.51953 8.16331 2.56581 8.76929 1.57297 9.62255C1.13336 10.0012 0.87723 10.3608 0.804583 10.7014C0.66674 11.3427 0.615514 12.2883 0.650907 13.5383L0.703995 14.8345C1.00949 16.3418 1.95483 17.349 3.54002 17.8562C4.54032 18.1751 5.48473 18.4713 6.37326 18.7448L5.95694 25.0329C5.95602 25.0483 5.95854 25.0637 5.96432 25.0783C5.9701 25.0928 5.97901 25.106 5.99047 25.1171C6.05194 25.1787 6.10502 25.1814 6.14973 25.1253C6.07708 26.2829 6.09105 27.4423 6.19164 28.6035C6.27547 29.5619 6.25498 30.2104 6.13017 30.5492C5.61047 31.9758 4.05973 32.2149 3.11532 32.8481C2.79493 33.0619 2.37953 33.455 1.86914 34.0274L1.17899 35.2394C1.02625 36.6977 1.05512 38.0854 1.26561 39.4024C1.37365 40.0764 1.64468 40.7023 2.0787 41.2802C2.50899 41.7802 3.04919 42.2168 3.69929 42.5899C4.59713 43.1026 5.4065 43.5075 6.12738 43.8046C6.20538 43.8371 6.28032 43.8781 6.35091 43.9269C6.76071 44.2131 7.13885 44.3789 7.48532 44.4242C10.4788 45.8861 13.4265 47.2765 16.3287 48.5954C17.9269 49.3218 19.5773 49.4341 21.2799 48.9323C21.7623 48.7892 22.649 48.4097 23.9399 47.7937C26.1547 46.7376 28.3481 45.6407 30.52 44.503C30.697 44.4541 30.8684 44.387 31.0341 44.3019C31.8482 43.8834 33.045 43.2421 34.6246 42.378C36.0235 41.6153 36.8319 40.4658 37.0499 38.9296C37.2734 37.3644 37.4606 35.5519 36.5749 34.2231C35.9229 33.3789 35.0921 32.7503 34.0825 32.3372C34.0473 32.3224 34.0074 32.3215 33.971 32.3346C33.9347 32.3477 33.9046 32.3739 33.8869 32.4079C33.4091 33.3318 33.0459 34.2693 32.0987 34.685C30.5601 35.3572 28.9646 35.8553 27.3124 36.1796C26.4946 36.339 25.3779 36.3454 23.9622 36.1986C24.9867 36.0591 26.0038 35.9006 27.0134 35.7231C27.5871 35.6235 28.0314 35.3943 28.3462 35.0356C29.516 33.7095 30.5368 32.0365 31.4086 30.0166C31.8556 28.9812 31.9059 28.1823 31.959 26.9704C32.054 24.8146 31.9562 22.7847 31.6656 20.8807L31.5594 18.6823C31.558 18.6399 31.5702 18.5982 31.5944 18.5635C31.6185 18.5287 31.6533 18.5028 31.6936 18.4894L32.8922 18.0736C34.6525 17.7285 36.9493 16.666 37.2175 14.7258C37.4336 13.1606 37.3237 11.5999 36.8878 10.0437C36.5842 9.63433 36.3104 9.33722 36.0663 9.15244C35.3511 8.60534 34.5128 8.12527 33.5516 7.71222C28.7402 4.92962 24.9942 2.84809 22.3137 1.46766C21.1383 0.862586 19.7711 0.669651 18.2119 0.888854Z" fill="#6C03AD"/>
<path d="M18.2119 0.888672C19.771 0.669469 21.1391 0.862701 22.3145 1.46777C24.9949 2.84819 28.7407 4.92953 33.5518 7.71191L29.3408 8.50781V8.50879L22.7607 9.13867C19.3856 9.24011 16.316 9.2285 13.5518 9.10352C10.6609 8.97127 7.62162 8.53834 4.43457 7.80469C8.16555 5.67793 11.7997 3.63266 15.3369 1.66895C16.2459 1.16535 17.2042 0.905004 18.2119 0.888672L21.4814 1.87012V1.86914L18.2119 0.888672ZM22.5381 4.16113C22.527 4.16711 22.5167 4.17495 22.5088 4.18457L22.5059 4.18848C22.4979 4.19815 22.4919 4.20978 22.4883 4.22168C22.4847 4.23364 22.483 4.2464 22.4844 4.25879C22.4858 4.27111 22.49 4.28305 22.4961 4.29395C22.5022 4.30479 22.5106 4.31448 22.5205 4.32227L25.8867 6.95508C25.8967 6.96291 25.9086 6.96915 25.9209 6.97266C25.9332 6.97616 25.9462 6.97693 25.959 6.97559C25.9716 6.97425 25.984 6.97072 25.9951 6.96484C26.0064 6.95885 26.0164 6.95015 26.0244 6.94043L26.0283 6.93652C26.0364 6.92679 26.0423 6.91531 26.0459 6.90332C26.0495 6.89138 26.0502 6.87858 26.0488 6.86621C26.0474 6.85395 26.0442 6.84189 26.0381 6.83105C26.032 6.82021 26.0235 6.81052 26.0137 6.80273L22.6465 4.16992C22.6367 4.1623 22.6253 4.15681 22.6133 4.15332C22.6011 4.14984 22.5879 4.14812 22.5752 4.14941C22.5624 4.15076 22.5494 4.15514 22.5381 4.16113ZM22.5439 3.39258C22.5222 3.39476 22.5023 3.40555 22.4883 3.42188L22.4668 3.44727C22.4598 3.45554 22.4544 3.46534 22.4512 3.47559C22.448 3.48572 22.4472 3.49629 22.4482 3.50684C22.4493 3.51749 22.4518 3.52864 22.457 3.53809C22.4622 3.54745 22.4701 3.55575 22.4785 3.5625L25.6826 6.12207C25.6996 6.13552 25.7213 6.14163 25.7432 6.13965C25.7653 6.13754 25.7857 6.12704 25.7998 6.11035L25.8213 6.08496C25.8282 6.07679 25.8337 6.06771 25.8369 6.05762C25.8401 6.04737 25.8409 6.03605 25.8398 6.02539C25.8387 6.01488 25.8362 6.00444 25.8311 5.99512C25.8259 5.98567 25.8181 5.9775 25.8096 5.9707L22.6055 3.41113C22.5883 3.3975 22.566 3.39047 22.5439 3.39258ZM22.6963 3.2832L22.6973 3.28223L22.6963 3.2832ZM25.2363 4.63281V4.63379V4.63281Z" fill="#FDC008"/>
<path d="M33.5518 7.71094C34.5129 8.12398 35.3511 8.60428 36.0664 9.15137C36.3103 9.33612 36.5842 9.6328 36.8877 10.042H36.8887C37.3245 11.5981 37.4338 13.1594 37.2178 14.7246C36.9493 16.6645 34.6527 17.7271 32.8926 18.0723C27.7373 18.3603 24.3451 18.6011 22.7168 18.7949C20.5673 19.0522 18.4009 19.2697 16.2197 19.4473C15.5737 19.4998 15.0173 19.5797 14.5518 19.6865C14.5243 19.6928 14.499 19.7068 14.4795 19.7266C14.46 19.7465 14.4465 19.7717 14.4414 19.7988C14.4364 19.8258 14.4402 19.8537 14.4512 19.8789C14.4623 19.9043 14.4813 19.9262 14.5049 19.9414C15.9379 20.868 15.9379 22.1646 16.0664 23.6562C14.3285 24.8682 12.6045 26.1078 10.8945 27.374C9.47158 28.4264 8.40819 29.4058 7.7041 30.3115C6.52219 31.8305 6.08342 34.1128 8.26562 35.0068C8.90241 35.2694 9.49562 35.4593 10.0449 35.5752C10.1186 35.5911 10.196 35.5902 10.2695 35.5723C10.343 35.5543 10.4117 35.5196 10.4697 35.4717C12.5708 33.7181 14.7145 32.1278 16.8994 30.7021C17.4414 32.547 17.4325 34.4902 15.8965 35.876C15.8654 35.9047 15.8419 35.9414 15.8301 35.9814C15.8183 36.0216 15.8182 36.0643 15.8291 36.1045C15.84 36.1446 15.8621 36.1812 15.8926 36.21C15.9229 36.2384 15.9608 36.2584 16.002 36.2676C17.0953 36.5193 18.1986 36.583 19.3105 36.458L23.9629 36.1973C25.3782 36.3439 26.4949 36.3371 27.3125 36.1777C28.9646 35.8535 30.5611 35.3556 32.0996 34.6836C33.0463 34.2677 33.41 33.3299 33.8877 32.4062C33.9054 32.3725 33.9355 32.3461 33.9717 32.333C34.0079 32.3201 34.0479 32.3212 34.083 32.3359C35.0924 32.749 35.9233 33.3776 36.5752 34.2217C35.3517 34.7868 34.2145 35.6616 33.125 36.1562C31.0436 37.1018 29.5368 37.7841 27.2041 37.9092C23.1286 38.1284 19.1083 37.898 15.1445 37.2188C13.4086 36.9217 11.7114 36.66 10.0537 36.4336C9.24726 36.3231 8.49114 36.1413 7.78711 35.8877C5.87054 35.1921 4.15446 34.5345 1.86914 34.0264C2.37946 33.454 2.79585 33.0604 3.11621 32.8467C4.06065 32.2138 5.61122 31.9741 6.13086 30.5479C6.25562 30.2091 6.27619 29.5598 6.19238 28.6016C6.09183 27.4406 6.07777 26.2814 6.15039 25.124C6.42789 24.3742 6.84672 23.6991 7.40723 23.0996C8.64032 21.7736 9.98578 20.5791 11.4424 19.5176C11.4525 19.5107 11.4605 19.5005 11.4648 19.4893C11.4691 19.478 11.4698 19.4657 11.4668 19.4541C11.4638 19.4425 11.4574 19.4318 11.4482 19.4238C11.4389 19.4159 11.4264 19.4106 11.4141 19.4092L6.37402 18.7432C5.48559 18.4696 4.54021 18.1733 3.54004 17.8545C1.95514 17.3472 1.00958 16.3401 0.704102 14.833L0.651367 13.5371C0.615982 12.2874 0.66691 11.3415 0.804688 10.7002C0.877335 10.3596 1.13363 9.99972 1.57324 9.62109C2.56607 8.76785 3.51998 8.16142 4.43457 7.80273C7.62164 8.53639 10.6609 8.96932 13.5518 9.10156C16.316 9.22655 19.3856 9.23914 22.7607 9.1377L29.3408 8.50684L33.5518 7.71094ZM3.33301 17.1416C3.43525 17.1935 3.54071 17.242 3.64844 17.2891C3.42444 17.1912 3.21199 17.0836 3.01172 16.9648L3.33301 17.1416ZM13.8301 16.4873C13.6815 16.5263 13.5311 16.5633 13.3789 16.5986L13.8311 16.4873C13.9796 16.4483 14.1264 16.4078 14.2715 16.3652L13.8301 16.4873ZM1.07812 15.5283H1.0791H1.07812ZM33.8643 11.3057H33.8652H33.8643ZM22.2461 10.7578H22.2471H22.2461ZM35.0547 10.6934H35.0557H35.0547Z" fill="#6C03AD"/>
<path d="M32.8926 18.0723L31.6939 18.488C31.6536 18.5014 31.6189 18.5274 31.5947 18.5621C31.5706 18.5968 31.5583 18.6385 31.5598 18.681L31.6659 20.8793C31.5486 22.5895 31.1462 24.0523 30.4589 25.2679C29.2369 27.431 27.7029 29.3621 25.857 31.0614C24.1749 32.6103 22.6726 33.8657 21.3501 34.8277C20.415 35.507 19.7351 36.0505 19.3103 36.4581C18.1983 36.5831 17.0955 36.5197 16.0021 36.2679C15.9607 36.2587 15.9227 36.2386 15.8922 36.2099C15.8618 36.1811 15.8399 36.1447 15.829 36.1045C15.8181 36.0644 15.8186 36.022 15.8304 35.9819C15.8422 35.9417 15.8648 35.9053 15.8959 35.8766C17.4327 34.4907 17.4411 32.5478 16.899 30.7027C17.9664 29.9292 19.0347 29.1556 20.1039 28.382C22.5608 26.6049 24.7747 24.633 26.7455 22.4663L29.0115 19.257C29.0274 19.2351 29.0365 19.2091 29.0375 19.1823C29.0385 19.1554 29.0315 19.1289 29.0173 19.1059C29.0031 19.0828 28.9823 19.0643 28.9574 19.0526C28.9326 19.0408 28.9048 19.0363 28.8774 19.0397L23.7474 19.5695L21.3836 19.7054C21.3071 19.709 21.2331 19.7355 21.1712 19.7815L16.0664 23.6565C15.9378 22.1647 15.9378 20.8685 14.5045 19.9418C14.4808 19.9266 14.4622 19.9049 14.4511 19.8795C14.44 19.8541 14.4367 19.8261 14.4418 19.7989C14.4468 19.7717 14.46 19.7466 14.4795 19.7266C14.4991 19.7066 14.5243 19.6926 14.552 19.6864C15.0177 19.5795 15.5737 19.4998 16.2201 19.4473C18.4013 19.2697 20.5668 19.0523 22.7164 18.7951C24.3444 18.6013 27.7365 18.3603 32.8926 18.0723Z" fill="#6C03AD"/>
<path d="M6.15001 25.1246C6.1053 25.1807 6.05221 25.178 5.99074 25.1164C5.97929 25.1053 5.97038 25.0921 5.9646 25.0776C5.95882 25.0631 5.9563 25.0476 5.95721 25.0322L6.37354 18.7441L11.4141 19.4099C11.4266 19.4113 11.4383 19.4163 11.4477 19.4243C11.4572 19.4323 11.4639 19.443 11.4669 19.4548C11.47 19.4666 11.4692 19.4791 11.4648 19.4905C11.4603 19.5019 11.4524 19.5117 11.4421 19.5186C9.9854 20.5802 8.6405 21.774 7.40736 23.1001C6.84667 23.6998 6.42756 24.3746 6.15001 25.1246Z" fill="#FDC008"/>
<path d="M28.8779 19.04C28.905 19.0368 28.9325 19.0412 28.957 19.0527C28.9819 19.0645 29.0034 19.0834 29.0176 19.1064C29.0317 19.1294 29.0381 19.1559 29.0371 19.1826C29.0361 19.2095 29.0276 19.2359 29.0117 19.2578L26.7451 22.4668C26.7112 22.3706 26.6761 22.2763 26.6387 22.1846C26.6761 22.2763 26.7112 22.3706 26.7451 22.4668C24.7744 24.6334 22.5604 26.6057 20.1035 28.3828C19.0345 29.1562 17.9665 29.9297 16.8994 30.7031C14.7144 32.1288 12.5709 33.719 10.4697 35.4727C10.4117 35.5205 10.343 35.5543 10.2695 35.5723C10.1958 35.5902 10.1187 35.5911 10.0449 35.5752C9.49559 35.4593 8.90245 35.2704 8.26562 35.0078C6.08367 34.1139 6.52151 31.8315 7.70312 30.3125C8.40721 29.4067 9.47149 28.4275 10.8945 27.375C12.6045 26.1087 14.3285 24.8692 16.0664 23.6572L21.1709 19.7822C21.2327 19.7363 21.3073 19.7096 21.3838 19.7061L23.7471 19.5703L28.8779 19.04ZM25.3955 20.4111C25.5276 20.5229 25.6526 20.6436 25.7705 20.7734C26.006 21.0329 26.213 21.3285 26.3916 21.6602V21.6592C26.1237 21.1619 25.7914 20.7461 25.3955 20.4111Z" fill="#FECD19"/>
<path d="M23.9628 36.1988L19.3105 36.4597C19.7353 36.0521 20.4152 35.5086 21.3503 34.8292C22.6728 33.8673 24.1751 32.6118 25.8572 31.0629C27.7031 29.3636 29.2371 27.4325 30.4591 25.2694C31.1464 24.0539 31.5488 22.591 31.6661 20.8809C31.9567 22.7848 32.0545 24.8147 31.9595 26.9705C31.9064 28.1825 31.8561 28.9814 31.4091 30.0167C30.5373 32.0367 29.5165 33.7097 28.3467 35.0357C28.0319 35.3944 27.5877 35.6236 27.0139 35.7233C26.0043 35.9008 24.9873 36.0593 23.9628 36.1988Z" fill="#FECD19"/>
<path d="M1.86914 34.0254C4.15473 34.5335 5.87034 35.192 7.78711 35.8877C8.49108 36.1413 9.24636 36.3231 10.0527 36.4336C11.7104 36.66 13.4076 36.9217 15.1436 37.2188C19.1074 37.8981 23.1275 38.1284 27.2031 37.9092C29.5362 37.7842 31.0425 37.1019 33.124 36.1562C34.2137 35.6617 35.3514 34.7869 36.5752 34.2217C37.4607 35.5504 37.2733 37.3627 37.0498 38.9277C36.8319 40.4638 36.0236 41.6133 34.625 42.376C33.0454 43.2401 31.8482 43.8823 31.0342 44.3008C30.8686 44.3858 30.6972 44.4521 30.5205 44.501C30.613 44.4143 30.5495 44.3757 30.3301 44.3848C30.2818 44.3866 30.2328 44.3936 30.1846 44.4062C25.3258 45.773 20.1429 45.9961 15.0801 45.5967C14.0575 45.5152 12.7887 45.3427 11.2744 45.0801C10.0394 44.8663 8.77621 44.6475 7.48535 44.4229C7.13888 44.3776 6.76039 44.212 6.35059 43.9258C6.28 43.877 6.20496 43.8352 6.12695 43.8027C5.40619 43.5057 4.59686 43.1005 3.69922 42.5879C3.04926 42.2147 2.50933 41.7782 2.0791 41.2783L1.92383 41.0596C1.5798 40.5435 1.36018 39.9909 1.26562 39.4014C1.05515 38.0844 1.026 36.6965 1.17871 35.2383L1.86914 34.0254ZM4.44824 42.6143H4.44922H4.44824ZM13.9766 38.1035V38.1025V38.1035Z" fill="#6C03AD"/>
<path d="M30.5201 44.5029C28.3481 45.6406 26.1547 46.7375 23.9399 47.7937C22.649 48.4096 21.7624 48.7891 21.2799 48.9322C19.5774 49.4341 17.927 49.3217 16.3287 48.5953C13.4266 47.2764 10.4788 45.886 7.48535 44.4241C8.77623 44.6487 10.0392 44.8679 11.2742 45.0817C12.7886 45.3444 14.0571 45.5165 15.0798 45.598C20.1427 45.9975 25.3258 45.7746 30.1848 44.4078C30.233 44.3951 30.2818 44.3879 30.3301 44.386C30.5499 44.377 30.6132 44.4159 30.5201 44.5029Z" fill="#FDC008"/>
<path d="M25.8099 5.97074L22.6058 3.41112C22.57 3.38254 22.5172 3.38758 22.4878 3.42237L22.4665 3.44757C22.4371 3.48236 22.4423 3.53373 22.4781 3.56231L25.6822 6.12193C25.718 6.1505 25.7708 6.14547 25.8002 6.11068L25.8215 6.08548C25.8509 6.05069 25.8457 5.99932 25.8099 5.97074Z" fill="#EF9E14"/>
<path d="M26.013 6.80334L22.6465 4.17092C22.6044 4.13801 22.5429 4.14451 22.509 4.18545L22.5055 4.18969C22.4717 4.23062 22.4784 4.29049 22.5205 4.3234L25.887 6.95582C25.9291 6.98873 25.9906 6.98223 26.0245 6.94129L26.028 6.93706C26.0618 6.89612 26.0551 6.83625 26.013 6.80334Z" fill="#EF9E14"/>
</g>
<defs>
<clipPath id="clip0_811_2076">
<rect width="38" height="50" fill="white"/>
</clipPath>
</defs>
</svg>
