<svg width="46" height="46" viewBox="0 0 46 46" fill="none" xmlns="http://www.w3.org/2000/svg">
<g clip-path="url(#clip0_811_1742)">
<path d="M45.8175 23.0005V34.4093C45.8175 41.2545 41.254 45.818 34.4088 45.818H11.5913C4.74611 45.818 0.182617 41.2545 0.182617 34.4093V23.0005C0.182617 16.7942 3.92468 12.4589 9.74313 11.7287C10.3364 11.6374 10.9525 11.5918 11.5913 11.5918H34.4088C35.0021 11.5918 35.5725 11.6146 36.1201 11.7059C42.007 12.3904 45.8175 16.7485 45.8175 23.0005Z" fill="#A95D24"/>
<path d="M36.1183 11.7045C35.5707 11.6132 35.0003 11.5904 34.407 11.5904H11.5894C10.9505 11.5904 10.3345 11.636 9.74121 11.7273C10.0607 11.0884 10.517 10.4952 11.0646 9.94754L18.4804 2.50902C21.6064 -0.594153 26.6719 -0.594153 29.7979 2.50902L33.7909 6.54776C35.2512 7.98526 36.027 9.81061 36.1183 11.7045Z" fill="#DE2F37"/>
<path d="M45.8179 24.1406H38.9727C36.4628 24.1406 34.4092 26.1942 34.4092 28.7041C34.4092 31.214 36.4628 33.2676 38.9727 33.2676H45.8179" fill="#F39309"/>
<circle cx="40.5235" cy="28.4756" r="2.19048" fill="#A95D24"/>
</g>
<defs>
<clipPath id="clip0_811_1742">
<rect width="46" height="46" fill="white"/>
</clipPath>
</defs>
</svg>
