<svg width="47" height="48" viewBox="0 0 47 48" fill="none" xmlns="http://www.w3.org/2000/svg">
<g clip-path="url(#clip0_811_1636)">
<path opacity="0.07" d="M36.9973 11.3496C37.0031 11.3493 37.0078 11.3476 37.0136 11.3472C37.2161 11.3355 37.4037 11.3053 37.5795 11.2623C37.6398 11.2475 37.692 11.2251 37.7493 11.2068C37.8643 11.1703 37.9757 11.1309 38.0769 11.0811C38.1346 11.0528 38.186 11.02 38.2391 10.9877C38.3263 10.9345 38.4079 10.8779 38.4823 10.8147C38.5286 10.7753 38.5721 10.735 38.6132 10.6921C38.68 10.6223 38.7377 10.5476 38.7907 10.469C38.8219 10.4227 38.8546 10.3781 38.8808 10.3289C38.9299 10.2371 38.9653 10.1388 38.9967 10.0379C39.0104 9.99372 39.0299 9.95275 39.0402 9.907C39.0735 9.75719 39.0909 9.60053 39.0855 9.436C39.0849 9.41734 39.0786 9.39728 39.0775 9.37844C39.0698 9.24738 39.0554 9.11406 39.0222 8.97597C39.0203 8.98019 39.0166 8.98328 39.0147 8.9875C38.974 8.81341 38.9116 8.63481 38.8315 8.45312L35.8477 11.4108L36.9973 11.3496Z" fill="#040000"/>
<path d="M43.1238 18.6365V46.1942C43.1238 47.1858 42.3096 48.0005 41.3015 48.0005H4.99324C3.98513 48.0005 3.1709 47.1858 3.1709 46.1942V18.6365C3.1709 17.645 3.98513 16.8301 4.99324 16.8301H41.3015C42.3096 16.8301 43.1238 17.6449 43.1238 18.6365Z" fill="white"/>
<path opacity="0.1" d="M43.123 18.6365V27.907H3.16992V18.6365C3.16992 17.645 3.98415 16.8301 4.99226 16.8301H41.3005C42.3087 16.8301 43.123 17.6449 43.123 18.6365Z" fill="#0F0F0F"/>
<path d="M45.5815 14.777V21.6415C45.5815 21.9029 45.5427 22.1565 45.473 22.4025C45.1706 23.4556 44.2478 24.2551 43.1233 24.3935C43.0147 24.4088 42.8984 24.4165 42.7821 24.4165H3.51144C3.39511 24.4165 3.27878 24.4088 3.1703 24.3935C1.78983 24.2242 0.711914 23.0481 0.711914 21.6414V14.777C0.711914 13.2549 1.9682 12.002 3.51144 12.002H42.7821C44.3252 12.002 45.5815 13.255 45.5815 14.777Z" fill="white"/>
<path d="M27.7614 12.6803C27.7614 12.8417 27.7459 12.9954 27.6994 13.1415C27.3581 14.5559 25.4505 15.632 23.1473 15.632C20.8441 15.632 18.9364 14.5559 18.5952 13.1415C18.5487 12.9954 18.5332 12.8417 18.5332 12.6803C18.5332 12.5189 18.5487 12.3651 18.5952 12.2191C18.6108 12.1422 18.6263 12.073 18.6573 12.0038C18.6573 11.9885 18.665 11.9808 18.6728 11.9731C18.6806 11.9346 18.6961 11.8962 18.7193 11.8578C18.921 11.4042 19.2854 10.9969 19.774 10.674C20.34 10.282 21.0613 9.98989 21.8833 9.84383C22.2788 9.76695 22.7053 9.72852 23.1473 9.72852C23.5894 9.72852 24.0158 9.76695 24.4114 9.84383C25.2333 9.98989 25.9546 10.282 26.5207 10.674C27.0093 10.9969 27.3737 11.4042 27.5754 11.8578C27.5987 11.8962 27.6142 11.9346 27.6219 11.9731C27.6297 11.9808 27.6374 11.9885 27.6374 12.0038C27.6685 12.073 27.684 12.1422 27.6995 12.2191C27.7459 12.3651 27.7614 12.5188 27.7614 12.6803Z" fill="url(#paint0_linear_811_1636)"/>
<path d="M27.7015 24.2949H18.5928V47.9802H27.7015V24.2949Z" fill="#B02441"/>
<path d="M27.698 11.9727H18.5938V24.4178H27.698V11.9727Z" fill="#CE3659"/>
<path d="M22.2868 10.903C22.2868 11.1413 22.2093 11.3487 22.0542 11.5179C22.0309 11.5486 21.9921 11.5794 21.9611 11.6024C21.6586 11.8561 21.1623 11.9791 20.4877 11.9484L18.7196 11.8561L9.29739 11.3487C8.56063 11.3103 7.99457 11.0566 7.63782 10.657C7.56027 10.5647 7.49047 10.4725 7.42852 10.3725C7.24239 10.0496 7.17259 9.66527 7.22688 9.24255C7.22688 9.20411 7.23464 9.16567 7.25015 9.11955C7.25015 9.07342 7.2579 9.0273 7.28117 8.98117C7.3277 8.75823 7.41301 8.5353 7.52934 8.30477L11.1509 1.30192C11.9651 -0.281609 13.5549 -0.442953 14.6793 0.940703L21.7052 9.60386C21.775 9.68842 21.8292 9.7653 21.8835 9.84217C21.9611 9.9498 22.0231 10.0496 22.0697 10.1496C22.1084 10.2188 22.1395 10.288 22.1627 10.3495C22.1938 10.4186 22.217 10.4878 22.2325 10.5493C22.248 10.6108 22.2636 10.6723 22.2713 10.7338C22.2791 10.7876 22.2868 10.8491 22.2868 10.903Z" fill="url(#paint1_linear_811_1636)"/>
<path opacity="0.07" d="M22.2868 10.9021C22.2868 11.1404 22.2093 11.3479 22.0542 11.517C22.0309 11.5478 21.9921 11.5785 21.9611 11.6016C21.6586 11.8553 21.1623 11.9783 20.4877 11.9475L18.7196 11.8553L9.29739 11.3479C8.56063 11.3095 7.99457 11.0558 7.63782 10.6561C7.56027 10.5639 7.49047 10.4716 7.42852 10.3717C7.24239 10.0488 7.17259 9.66444 7.22688 9.24172C7.22688 9.20328 7.23464 9.16484 7.25015 9.11872C7.25015 9.07259 7.2579 9.02647 7.27341 8.97266L7.28117 8.98034C7.56036 9.61831 8.24275 10.0565 9.21984 10.1026L19.7742 10.6714L20.4101 10.7022C21.2553 10.7483 21.8292 10.533 22.0697 10.1487C22.1084 10.2178 22.1395 10.287 22.1627 10.3485C22.1938 10.4177 22.217 10.4869 22.2325 10.5484C22.248 10.6099 22.2636 10.6714 22.2713 10.7329C22.2791 10.7868 22.2868 10.8483 22.2868 10.9021Z" fill="#0F0F0F"/>
<path d="M38.8672 10.3723C38.8051 10.4722 38.7353 10.5645 38.6578 10.6567C38.3011 11.0564 37.735 11.3101 36.9983 11.3485L27.5761 11.8559L25.808 11.9482C25.1333 11.9789 24.637 11.8559 24.3345 11.6022C24.3035 11.5792 24.2647 11.5484 24.2415 11.5177C24.0863 11.3485 24.0088 11.141 24.0088 10.9027C24.0088 10.8489 24.0165 10.7874 24.0243 10.7336C24.0321 10.6721 24.0476 10.6106 24.0631 10.5491C24.0786 10.4876 24.1019 10.4184 24.1329 10.3492C24.1561 10.2877 24.1872 10.2186 24.2259 10.1494C24.2725 10.0494 24.3345 9.9495 24.4121 9.84197C24.4664 9.76509 24.5206 9.68822 24.5904 9.60365L31.6163 0.940498C32.2444 0.164154 33.02 -0.120284 33.7256 0.0564351C34.2762 0.187123 34.788 0.602248 35.1448 1.30172L35.3154 1.63228L38.7663 8.30456C38.8826 8.53519 38.9679 8.75803 39.0144 8.98097C39.0377 9.02709 39.0455 9.07322 39.0455 9.11934C39.061 9.16547 39.0687 9.2039 39.0687 9.24234C39.1231 9.66515 39.0533 10.0494 38.8672 10.3723Z" fill="url(#paint2_linear_811_1636)"/>
<path opacity="0.07" d="M25.8042 11.9445L36.9988 11.348C38.5279 11.2667 39.3319 10.2543 39.024 8.97461C38.7416 9.61689 38.0597 10.0521 37.0796 10.1044L25.8855 10.7003C25.0373 10.7454 24.4683 10.5324 24.2241 10.1483C23.6412 11.2523 24.2593 12.027 25.8042 11.9445Z" fill="#0F0F0F"/>
<path opacity="0.03" d="M45.5821 14.7769V21.6413C45.5821 21.9027 45.5433 22.1563 45.4736 22.4023C45.1712 23.4477 44.2484 24.2395 43.1239 24.3778V46.1933C43.1239 47.1849 42.3097 47.9997 41.3016 47.9997H4.99324C3.98513 47.9997 3.1709 47.1849 3.1709 46.1933V43.8027L18.5953 28.5134L19.2079 27.9062L22.7286 24.4163L30.3827 16.8293L35.2527 12.002H42.7827C44.3258 12.0019 45.5821 13.2548 45.5821 14.7769Z" fill="#0F0F0F"/>
</g>
<defs>
<linearGradient id="paint0_linear_811_1636" x1="18.5331" y1="12.6803" x2="27.7614" y2="12.6803" gradientUnits="userSpaceOnUse">
<stop offset="0.0338" stop-color="#AD1C41"/>
<stop offset="0.9903" stop-color="#AB1F24"/>
</linearGradient>
<linearGradient id="paint1_linear_811_1636" x1="7.20899" y1="5.97651" x2="22.2868" y2="5.97651" gradientUnits="userSpaceOnUse">
<stop offset="0.0338" stop-color="#BB2C4F"/>
<stop offset="0.9903" stop-color="#BA2822"/>
</linearGradient>
<linearGradient id="paint2_linear_811_1636" x1="24.0089" y1="5.97933" x2="39.0867" y2="5.97933" gradientUnits="userSpaceOnUse">
<stop offset="0.0338" stop-color="#BB2C4F"/>
<stop offset="0.9903" stop-color="#BA2822"/>
</linearGradient>
<clipPath id="clip0_811_1636">
<rect width="47" height="48" fill="white"/>
</clipPath>
</defs>
</svg>
